<svg width="24" height="24" viewBox="0 0 24 24" fill="none" xmlns="http://www.w3.org/2000/svg">
<path d="M21.5846 4.79219C21.3768 4.79838 21.1795 4.88524 21.0346 5.03437L8.80026 17.2688L3.76589 12.2344C3.69217 12.1576 3.60388 12.0963 3.50617 12.0541C3.40847 12.0118 3.30332 11.9895 3.19689 11.9885C3.09046 11.9874 2.98488 12.0075 2.88634 12.0478C2.7878 12.088 2.69827 12.1475 2.62301 12.2227C2.54775 12.298 2.48826 12.3875 2.44803 12.4861C2.4078 12.5846 2.38763 12.6902 2.38871 12.7966C2.3898 12.9031 2.4121 13.0082 2.45433 13.1059C2.49656 13.2036 2.55786 13.2919 2.63464 13.3656L8.23464 18.9656C8.38467 19.1156 8.58813 19.1998 8.80026 19.1998C9.0124 19.1998 9.21585 19.1156 9.36589 18.9656L22.1659 6.16562C22.2815 6.05325 22.3604 5.90858 22.3924 5.75057C22.4244 5.59255 22.4079 5.42856 22.345 5.28009C22.2822 5.13163 22.176 5.0056 22.0403 4.91854C21.9046 4.83148 21.7458 4.78744 21.5846 4.79219Z" fill="black"/>
</svg>
