<svg width="109" height="32" viewBox="0 0 109 32" fill="none" xmlns="http://www.w3.org/2000/svg">
<g clip-path="url(#clip0_53_3596)">
<path d="M0 15.1301C0.117043 15.6909 0.117043 16.2697 0 16.8305L0 15.1301Z" fill="black"/>
<path d="M15.519 31.9388H16.4484C16.4664 31.9388 16.4736 31.9676 16.4664 31.9821C16.4592 31.9965 16.4664 31.9821 16.4448 31.9821H15.5226C15.5009 31.9821 15.4901 31.9568 15.4973 31.9424C15.5045 31.928 15.5118 31.9388 15.519 31.9388Z" fill="black"/>
<path d="M15.5191 31.9388C15.521 31.9592 15.521 31.9797 15.5191 32.0001H15.0977C15.0994 31.9797 15.0994 31.9592 15.0977 31.9388H15.5191Z" fill="black"/>
<path d="M16.4447 32.0001C16.4429 31.9797 16.4429 31.9592 16.4447 31.9388H16.8697C16.8697 31.9388 16.8697 31.9785 16.8697 31.9965L16.4447 32.0001Z" fill="black"/>
<path d="M49.3528 10.3281V12.4211H43.2756V14.986H48.9709V17.097H43.2611V21.7261H40.9736V10.3281H49.3528Z" fill="black"/>
<path d="M77.7543 15.7353H76.2773V13.8152H77.7543C77.7543 13.3469 77.7543 12.9146 77.7543 12.4787C77.7975 11.1315 78.5649 10.1264 79.8077 9.85981C80.3626 9.73887 80.9363 9.7324 81.4937 9.8408C82.0512 9.94919 82.5807 10.1702 83.0498 10.4902C82.7616 11.0522 82.4843 11.5962 82.1997 12.1581C81.7698 11.94 81.298 11.8172 80.8163 11.7979C80.7101 11.7895 80.6033 11.8022 80.502 11.8352C80.4006 11.8681 80.3068 11.9207 80.2258 11.99C80.1449 12.0592 80.0784 12.1438 80.0301 12.2388C79.9818 12.3338 79.9528 12.4374 79.9446 12.5436C79.8919 12.9618 79.881 13.3841 79.9122 13.8044H82.3438V15.7461H79.9013V21.7153H77.7615L77.7543 15.7353Z" fill="black"/>
<path d="M108.918 21.0993C108.291 21.5732 107.541 21.8593 106.757 21.9242C106.262 21.9777 105.762 21.9497 105.276 21.8414C104.734 21.7063 104.25 21.3972 103.899 20.9614C103.549 20.5255 103.35 19.9869 103.335 19.4278C103.237 18.347 103.306 17.2663 103.284 16.2072V15.7605H101.804V13.8152H103.284V11.4917H105.464V13.808H108.299V15.7461H105.464C105.464 16.5747 105.464 17.3852 105.464 18.1957C105.444 18.4785 105.458 18.7626 105.503 19.0423C105.527 19.1923 105.581 19.3357 105.663 19.4632C105.746 19.5907 105.854 19.6995 105.981 19.7824C106.108 19.8653 106.251 19.9205 106.401 19.9445C106.551 19.9684 106.704 19.9605 106.851 19.9213C107.07 19.8787 107.284 19.816 107.492 19.734C107.701 19.6547 107.895 19.5466 108.13 19.435C108.389 19.9861 108.648 20.5337 108.918 21.0993Z" fill="black"/>
<path d="M50.7471 13.826H52.804V14.5897C53.8127 13.6147 54.9282 13.3505 56.1507 13.7972L55.8372 15.901C55.469 15.782 55.0882 15.7059 54.7025 15.674C53.5461 15.6308 52.8797 16.254 52.8761 17.414C52.8761 18.7361 52.8761 20.0581 52.8761 21.3766V21.7152H50.7507L50.7471 13.826Z" fill="black"/>
<path d="M96.4793 29.8099C96.3561 29.8551 96.2208 29.8551 96.0975 29.8099C96.1518 29.3726 96.2348 28.9394 96.3461 28.513C96.4001 28.2428 96.4325 27.9799 96.1731 27.8141C96.0408 27.733 95.8866 27.695 95.7317 27.7053C95.5768 27.7156 95.429 27.7738 95.3086 27.8718C95.0914 28.0403 94.9491 28.2874 94.9123 28.5598C94.8222 28.9705 94.7358 29.3848 94.6529 29.781C94.5268 29.8891 94.4116 29.8315 94.2314 29.8531L94.7502 27.4035C94.872 27.3569 95.0067 27.3569 95.1284 27.4035V27.5872C95.1609 27.5872 95.1933 27.5656 95.2185 27.5512C95.4205 27.406 95.6652 27.3325 95.9138 27.3422C96.0384 27.3332 96.1634 27.3527 96.2794 27.3993C96.3953 27.4459 96.4991 27.5183 96.5828 27.6111C96.6665 27.7038 96.7279 27.8145 96.7625 27.9346C96.797 28.0546 96.8036 28.181 96.7819 28.3041C96.7207 28.794 96.5874 29.2947 96.4793 29.8099Z" fill="black"/>
<path d="M97.7108 29.7918C97.5776 29.8674 97.4623 29.8314 97.293 29.8386C97.4731 28.9992 97.6532 28.1887 97.8153 27.3926C97.9315 27.3495 98.0593 27.3495 98.1756 27.3926V27.5475C98.2136 27.5432 98.2511 27.5348 98.2872 27.5223C98.5329 27.3521 98.836 27.286 99.1302 27.3385C99.251 27.3549 99.3667 27.3975 99.4693 27.4633C99.5719 27.5291 99.6588 27.6166 99.724 27.7195C99.7892 27.8225 99.8311 27.9385 99.8468 28.0594C99.8624 28.1802 99.8515 28.3031 99.8146 28.4193C99.7282 28.8804 99.6165 29.3379 99.5156 29.7954C99.4536 29.8285 99.3843 29.8458 99.3139 29.8458C99.2435 29.8458 99.1743 29.8285 99.1122 29.7954C99.195 29.3919 99.2743 28.992 99.3571 28.5922C99.4652 28.095 99.3932 27.8717 99.1014 27.7456C98.909 27.6819 98.7003 27.689 98.5127 27.7656C98.3251 27.8422 98.1711 27.9833 98.0783 28.1635C97.9717 28.4262 97.8967 28.7007 97.855 28.9812C97.8189 29.255 97.7649 29.5396 97.7108 29.7918Z" fill="black"/>
<path d="M82.2969 29.5576L82.5094 29.2514C82.6865 29.3782 82.89 29.4632 83.1046 29.5C83.3193 29.5368 83.5394 29.5245 83.7486 29.464C83.7914 29.4585 83.8328 29.4447 83.8702 29.4233C83.9077 29.4019 83.9406 29.3733 83.967 29.3392C83.9935 29.3051 84.0129 29.2661 84.0243 29.2245C84.0356 29.1828 84.0387 29.1394 84.0332 29.0965C84.0278 29.0537 84.014 29.0124 83.9926 28.9749C83.9711 28.9375 83.9426 28.9046 83.9084 28.8781C83.8743 28.8517 83.8353 28.8323 83.7937 28.8209C83.7521 28.8096 83.7086 28.8065 83.6658 28.812C83.5037 28.7831 83.338 28.7687 83.1795 28.7255C82.8949 28.6426 82.6499 28.5021 82.6355 28.1563C82.625 28.0032 82.6638 27.8506 82.7461 27.721C82.8284 27.5914 82.9499 27.4915 83.093 27.4358C83.3469 27.3416 83.6186 27.305 83.8883 27.3286C84.1581 27.3523 84.4193 27.4357 84.6528 27.5727C84.6447 27.6368 84.6231 27.6985 84.5896 27.7537C84.5561 27.8089 84.5114 27.8565 84.4583 27.8933C84.1694 27.7339 83.8397 27.6636 83.5109 27.6916C83.2983 27.724 83.0714 27.7889 83.0642 28.0518C83.057 28.3148 83.2803 28.3544 83.4821 28.3905C83.6117 28.4121 83.7414 28.4301 83.8675 28.4625C84.1557 28.5346 84.4007 28.6643 84.4475 28.9993C84.4676 29.1599 84.433 29.3225 84.3494 29.4611C84.2657 29.5996 84.1379 29.706 83.9864 29.763C83.7097 29.8707 83.4106 29.9083 83.1159 29.8725C82.8211 29.8366 82.5397 29.7285 82.2969 29.5576Z" fill="black"/>
<path d="M79.9047 27.3781C80.0344 27.3275 80.1784 27.3275 80.3081 27.3781C80.2253 27.778 80.1424 28.1779 80.056 28.5813C79.9407 29.1145 80.0272 29.3486 80.3766 29.4567C80.5777 29.5165 80.7943 29.4949 80.9796 29.3965C81.1649 29.2981 81.3041 29.1309 81.3672 28.9308C81.4933 28.5381 81.5582 28.1274 81.6482 27.7276C81.6771 27.6015 81.7095 27.479 81.7383 27.3673C81.868 27.3274 82.0072 27.3312 82.1346 27.3781C82.0085 27.9365 81.9184 28.5057 81.7527 29.0497C81.6979 29.2065 81.6124 29.3508 81.5013 29.4743C81.3902 29.5979 81.2557 29.698 81.1055 29.7691C80.9554 29.8402 80.7926 29.8807 80.6266 29.8883C80.4607 29.8959 80.2949 29.8704 80.1388 29.8134C79.9347 29.7411 79.7662 29.593 79.6682 29.3999C79.5703 29.2067 79.5505 28.9833 79.6129 28.7759C79.6885 28.3112 79.8002 27.8537 79.9047 27.3781Z" fill="black"/>
<path d="M107.895 27.7384H106.912C106.77 28.1869 106.672 28.6476 106.616 29.1145C106.607 29.174 106.614 29.2348 106.634 29.2913C106.655 29.3478 106.689 29.3982 106.735 29.4379C106.78 29.4777 106.834 29.5055 106.893 29.5189C106.951 29.5322 107.012 29.5307 107.07 29.5144C107.222 29.4836 107.372 29.4402 107.517 29.3847C107.618 29.4315 107.632 29.5396 107.675 29.6333C107.518 29.7743 107.322 29.8651 107.113 29.894C106.904 29.9229 106.691 29.8886 106.501 29.7954C106.37 29.7126 106.271 29.5889 106.218 29.4435C106.165 29.2981 106.162 29.1394 106.209 28.992C106.256 28.7615 106.307 28.5309 106.353 28.3004C106.389 28.1311 106.422 27.9402 106.461 27.7672L105.993 27.7384C105.932 27.6015 105.993 27.5007 106.054 27.3782L106.548 27.3422L106.717 26.6217C106.843 26.5424 106.959 26.5821 107.077 26.5821C107.131 26.845 106.969 27.072 106.998 27.3025C107.149 27.3417 107.305 27.3526 107.459 27.3349C107.611 27.3349 107.762 27.3349 107.91 27.3349C107.989 27.4971 107.928 27.5979 107.895 27.7384Z" fill="black"/>
<path d="M87.0117 27.3458C87.0493 27.4726 87.0378 27.609 86.9793 27.7276H85.9778C85.8806 28.1779 85.7761 28.5958 85.7077 29.0245C85.6894 29.0939 85.6906 29.167 85.711 29.2358C85.7314 29.3046 85.7702 29.3665 85.8233 29.4148C85.8764 29.463 85.9417 29.4958 86.0122 29.5096C86.0826 29.5234 86.1554 29.5176 86.2228 29.4928C86.3454 29.4597 86.4657 29.4188 86.583 29.3703C86.6947 29.41 86.7091 29.5252 86.756 29.6153C86.5981 29.755 86.4027 29.8454 86.1941 29.8755C85.9854 29.9056 85.7725 29.874 85.5816 29.7846C85.2213 29.5577 85.2213 29.2082 85.315 28.8444C85.4087 28.4805 85.4627 28.1239 85.542 27.7637L85.0736 27.7312C85.0052 27.6016 85.0736 27.5043 85.1277 27.371L85.6248 27.335L85.7941 26.6145C85.913 26.5244 86.0283 26.5749 86.1544 26.5641C86.2084 26.8307 86.0499 27.0576 86.0787 27.3314L87.0117 27.3458Z" fill="black"/>
<path d="M78.8341 26.2111C78.9784 26.1751 79.1294 26.1751 79.2736 26.2111C79.0647 27.1621 78.9422 28.1312 78.6396 29.057C78.573 29.2858 78.4357 29.4877 78.2474 29.634C78.0592 29.7802 77.8296 29.8632 77.5913 29.8711C77.359 29.9051 77.1219 29.8739 76.9063 29.781C76.6906 29.6882 76.505 29.5373 76.3701 29.3452L76.6583 29.0858C76.7733 29.1824 76.8936 29.2726 77.0185 29.356C77.5697 29.6658 78.1497 29.3776 78.3226 28.6823C78.4631 28.1239 78.5676 27.5548 78.6828 26.9928C78.7261 26.7406 78.7765 26.4849 78.8341 26.2111Z" fill="black"/>
<path d="M90.7299 29.5072C90.1247 30.0152 89.3286 29.9972 88.9107 29.5072C88.7054 29.2223 88.6174 28.8693 88.665 28.5213C88.7126 28.1733 88.8921 27.8569 89.1665 27.6376C89.2967 27.5274 89.4474 27.444 89.6099 27.3921C89.7725 27.3402 89.9436 27.3209 90.1136 27.3353C90.2836 27.3497 90.4491 27.3975 90.6006 27.4759C90.7521 27.5544 90.8867 27.662 90.9965 27.7925C90.9377 27.8918 90.8478 27.9691 90.7407 28.0123C90.1247 27.652 89.6852 27.652 89.325 28.0411C89.1831 28.1996 89.0971 28.4003 89.0801 28.6125C89.0632 28.8246 89.1163 29.0364 89.2313 29.2154C89.5231 29.5973 89.9158 29.6117 90.5246 29.2731C90.6156 29.3281 90.6873 29.4099 90.7299 29.5072Z" fill="black"/>
<path d="M105.578 27.778C105.505 27.8782 105.406 27.9557 105.29 28.0014C104.764 27.6051 104.271 27.6087 103.907 28.0014C103.751 28.1643 103.659 28.377 103.645 28.6018C103.631 28.8266 103.697 29.049 103.831 29.2298C104.123 29.59 104.552 29.59 105.067 29.2298C105.169 29.2843 105.252 29.3684 105.305 29.4712C105.077 29.713 104.763 29.8549 104.43 29.8657C104.098 29.8765 103.775 29.7554 103.532 29.5288C103.312 29.2569 103.204 28.9108 103.231 28.5617C103.257 28.2126 103.417 27.887 103.676 27.652C103.808 27.5321 103.962 27.44 104.13 27.3812C104.298 27.3225 104.477 27.2983 104.654 27.31C104.832 27.3218 105.005 27.3693 105.164 27.4497C105.323 27.5302 105.464 27.6418 105.578 27.778Z" fill="black"/>
<path d="M31.8775 14.0133C31.4467 10.1934 29.609 6.67082 26.7225 4.13199C24.996 2.53395 22.9301 1.34734 20.6799 0.661093C18.4296 -0.0251594 16.0532 -0.193266 13.7287 0.169367C10.2669 0.621114 7.0617 2.23704 4.63987 4.7516C2.23033 7.17194 0.669468 10.3076 0.190926 13.6891C0.174054 14.1057 0.110003 14.519 0 14.9211L0 15.1301C0.0612274 15.6952 0.0612274 16.2653 0 16.8304L0 17.0429C0.0864573 17.7634 0.108072 18.5127 0.262974 19.2404C0.825123 21.9846 2.10128 24.532 3.96263 26.6253C5.47022 28.3475 7.33678 29.7185 9.43105 30.642C11.213 31.4888 13.1572 31.9398 15.13 31.964H16.4233C16.5701 31.973 16.7175 31.9658 16.8628 31.9424C17.4748 31.9022 18.0843 31.8313 18.6892 31.7299C22.7441 31.0397 26.3772 28.8136 28.8333 25.5142C31.2894 22.2148 32.3797 18.0958 31.8775 14.0133ZM15.9838 30.4654C13.1186 30.4604 10.3193 29.6061 7.93963 28.0104C5.55997 26.4147 3.70684 24.1492 2.61451 21.5005C1.52218 18.8517 1.23969 15.9386 1.80276 13.1293C2.36582 10.32 3.74916 7.74074 5.7779 5.71754C7.80663 3.69434 10.3897 2.31806 13.2005 1.76267C16.0113 1.20729 18.9237 1.49774 21.5694 2.59731C24.2152 3.69688 26.4755 5.55619 28.0647 7.94021C29.6539 10.3242 30.5007 13.1259 30.4978 15.991C30.4978 17.8952 30.1221 19.7806 29.3922 21.5393C28.6623 23.298 27.5926 24.8954 26.2444 26.24C24.8961 27.5846 23.2958 28.65 21.5351 29.375C19.7744 30.1001 17.8879 30.4706 15.9838 30.4654Z" fill="black"/>
<path d="M74.4618 13.8296H72.4084L72.376 14.5501C72.322 14.5285 72.3004 14.5249 72.286 14.5105C70.9783 13.1488 68.5647 13.3217 67.3075 14.8059C66.899 15.2955 66.6015 15.8679 66.4354 16.4836C66.2694 17.0992 66.2387 17.7436 66.3456 18.3722C66.4397 19.2848 66.8676 20.1304 67.5471 20.7467C68.2266 21.3631 69.1099 21.7067 70.0273 21.7116C70.4679 21.7184 70.9048 21.6313 71.3092 21.4561C71.7135 21.281 72.076 21.0218 72.3724 20.6958C72.3724 20.9551 72.3724 21.1388 72.3724 21.3226C72.375 21.7513 72.2306 22.1679 71.9631 22.5029C71.6956 22.8379 71.3213 23.0711 70.9026 23.1634C70.395 23.2792 69.8689 23.289 69.3572 23.1922C68.7021 23.0758 68.0765 22.831 67.5164 22.4717C67.257 23.0625 67.0085 23.6317 66.7455 24.2261C67.4851 24.7189 68.333 25.0254 69.2167 25.1195C70.3382 25.3285 71.4971 25.1771 72.5273 24.6872C73.9683 23.9343 74.505 22.6699 74.5086 21.1172C74.5086 18.8141 74.5086 16.511 74.5086 14.2079C74.5391 14.0803 74.5225 13.9459 74.4618 13.8296ZM70.4992 19.7195C70.2314 19.7219 69.966 19.6693 69.7194 19.565C69.4728 19.4607 69.2502 19.3068 69.0655 19.113C68.8808 18.9191 68.7378 18.6894 68.6455 18.438C68.5531 18.1867 68.5134 17.9191 68.5287 17.6517C68.5091 17.3834 68.5465 17.114 68.6386 16.8611C68.7306 16.6083 68.8751 16.3778 69.0626 16.1849C69.2501 15.9919 69.4764 15.8409 69.7264 15.7417C69.9765 15.6424 70.2448 15.5973 70.5136 15.6092C71.6591 15.6092 72.4589 16.4557 72.4589 17.6589C72.4731 17.9242 72.4331 18.1895 72.3414 18.4388C72.2497 18.6881 72.1082 18.916 71.9255 19.1088C71.7428 19.3016 71.5227 19.4552 71.2788 19.5602C71.0348 19.6652 70.772 19.7194 70.5064 19.7195H70.4992Z" fill="black"/>
<path d="M27.6882 18.5991C27.5966 18.1018 27.3431 17.6487 26.9671 17.3105C26.5911 16.9724 26.1138 16.7681 25.6096 16.7295C25.1239 16.6849 24.637 16.8 24.2227 17.0573C23.896 17.2615 23.6237 17.5419 23.4292 17.8744C23.2346 18.207 23.1237 18.5817 23.1059 18.9666C21.8055 17.9687 21.2687 15.3354 22.0252 13.7503C23.4121 13.6062 24.2587 12.9362 24.5073 11.7978C24.6134 11.2948 24.559 10.7711 24.3518 10.3006C24.1446 9.83002 23.795 9.43635 23.3522 9.175C22.9095 8.91364 22.3959 8.79777 21.8838 8.84371C21.3717 8.88965 20.887 9.09509 20.4978 9.43107C20.1107 9.76607 19.8396 10.215 19.7233 10.7135C19.6402 11.077 19.6374 11.4542 19.7152 11.8188C19.793 12.1834 19.9494 12.5266 20.1736 12.8245C19.6618 13.0227 19.1129 13.1064 18.5653 13.0697C18.0177 13.033 17.4849 12.8767 17.0042 12.612C16.5234 12.3473 16.1066 11.9804 15.7828 11.5373C15.4591 11.0942 15.2363 10.5855 15.1302 10.0471C16.2938 9.1681 16.6865 7.91087 16.1749 6.68966C15.9441 6.12109 15.5272 5.6476 14.9925 5.34651C14.4578 5.04543 13.8368 4.93454 13.231 5.03197C12.6251 5.12939 12.0702 5.42937 11.6568 5.8829C11.2434 6.33644 10.9961 6.91673 10.9551 7.52901C10.829 8.84749 11.5927 9.87777 13.0985 10.4109C13.4587 12.7921 11.4054 14.9175 9.29437 14.705C9.49611 13.174 9.04581 12.1833 7.91466 11.697C7.4241 11.4817 6.87649 11.4331 6.35569 11.5587C5.83489 11.6843 5.36964 11.9772 5.03119 12.3925C4.69275 12.8078 4.49978 13.3226 4.48184 13.858C4.46391 14.3934 4.62199 14.92 4.93188 15.357C5.22766 15.793 5.65968 16.1186 6.1603 16.2828C6.53012 16.4036 6.92289 16.4372 7.30786 16.381C7.69283 16.3247 8.05956 16.1802 8.37937 15.9586L13.7685 21.6143C13.0481 23.257 13.1958 24.5251 14.2008 25.5265C14.6582 25.9763 15.2421 26.2756 15.8743 26.3844C16.5065 26.4932 17.1569 26.4063 17.7384 26.1353C19.0568 25.5193 19.5792 24.3918 19.4279 22.4537L23.5382 20.3859C24.4784 21.3586 25.5195 21.5891 26.5138 21.0596C26.9446 20.8263 27.2903 20.4625 27.5013 20.0204C27.7123 19.5784 27.7777 19.0808 27.6882 18.5991ZM6.93121 14.9175C6.68111 14.9087 6.44355 14.8059 6.26593 14.6296C6.08831 14.4533 5.9837 14.2165 5.97297 13.9665C5.97862 13.7094 6.08473 13.4648 6.26855 13.285C6.45237 13.1052 6.6993 13.0046 6.95642 13.0046C7.08038 13.0074 7.20257 13.0346 7.31601 13.0847C7.42944 13.1347 7.53191 13.2066 7.61755 13.2963C7.7032 13.386 7.77033 13.4916 7.81513 13.6072C7.85993 13.7228 7.88151 13.8461 7.87864 13.9701C7.87675 14.2208 7.77633 14.4607 7.59906 14.6379C7.42179 14.8152 7.1819 14.9156 6.93121 14.9175ZM22.0937 10.3245C22.3451 10.3263 22.586 10.4257 22.7655 10.6018C22.945 10.7779 23.049 11.0169 23.0555 11.2683C23.0598 11.3942 23.039 11.5197 22.9942 11.6375C22.9494 11.7553 22.8816 11.8629 22.7948 11.9541C22.7079 12.0454 22.6037 12.1184 22.4882 12.1689C22.3728 12.2193 22.2484 12.2463 22.1225 12.2481C21.866 12.2501 21.6191 12.1511 21.4351 11.9724C21.251 11.7938 21.1447 11.5499 21.139 11.2935C21.1461 11.0412 21.2485 10.8009 21.4256 10.6211C21.6028 10.4413 21.8415 10.3353 22.0937 10.3245ZM14.9465 11.4556C15.7859 12.983 17.7348 14.2511 20.3501 13.4838L17.3565 20.3283C17.0458 20.2651 16.7298 20.2313 16.4127 20.2274C16.2722 19.4241 16.1353 18.6496 15.9984 17.8751L14.8709 11.5277C14.8493 11.452 14.8817 11.434 14.9465 11.4556ZM12.4248 7.73435C12.4287 7.41238 12.5602 7.10511 12.7906 6.88014C13.021 6.65517 13.3313 6.53093 13.6533 6.53476C13.9752 6.53858 14.2825 6.67015 14.5075 6.90052C14.7324 7.13089 14.8567 7.4412 14.8529 7.76317C14.849 8.08514 14.7175 8.39241 14.4871 8.61738C14.2567 8.84235 13.9464 8.96659 13.6244 8.96276C13.3025 8.95894 12.9952 8.82737 12.7702 8.597C12.5453 8.36663 12.421 8.05632 12.4248 7.73435ZM9.36642 15.4327C11.7836 15.2273 13.239 13.9377 13.8154 11.6177C14.3293 14.5333 14.842 17.4476 15.3536 20.3607L14.5106 20.8182L9.36642 15.4327ZM16.4271 24.9249C16.2145 24.9269 16.0036 24.8863 15.8069 24.8056C15.6102 24.7249 15.4316 24.6057 15.2816 24.4551C15.1316 24.3044 15.0132 24.1252 14.9334 23.9282C14.8536 23.7311 14.8139 23.5201 14.8168 23.3075C14.8138 23.0946 14.854 22.8834 14.9349 22.6865C15.0159 22.4896 15.1359 22.3111 15.2878 22.162C15.4396 22.0128 15.6202 21.896 15.8185 21.8186C16.0168 21.7412 16.2287 21.7048 16.4415 21.7116C16.8622 21.7183 17.2633 21.8908 17.5575 22.1917C17.8516 22.4926 18.0151 22.8975 18.0121 23.3183C18.0084 23.742 17.8389 24.1474 17.54 24.4477C17.241 24.748 16.8364 24.9193 16.4127 24.9249H16.4271ZM18.9704 21.4847C18.7643 21.2489 18.5376 21.0319 18.2931 20.8362C19.2129 18.7132 20.134 16.601 21.0562 14.4996C21.0814 14.4672 21.1066 14.4636 21.1354 14.4996C21.0002 15.4848 21.0726 16.4873 21.348 17.4428C21.5915 18.2858 22.096 19.0299 22.7889 19.5682L18.9704 21.4847ZM25.4331 19.8132C25.2307 19.7995 25.0411 19.7096 24.9026 19.5614C24.764 19.4133 24.687 19.218 24.687 19.0152C24.687 18.8124 24.764 18.6172 24.9026 18.469C25.0411 18.3209 25.2307 18.2309 25.4331 18.2173C25.5424 18.2099 25.652 18.2251 25.7552 18.2619C25.8584 18.2987 25.9529 18.3563 26.0329 18.4311C26.1129 18.5059 26.1767 18.5963 26.2203 18.6968C26.2639 18.7973 26.2864 18.9057 26.2864 19.0152C26.2864 19.1248 26.2639 19.2331 26.2203 19.3336C26.1767 19.4341 26.1129 19.5246 26.0329 19.5994C25.9529 19.6742 25.8584 19.7318 25.7552 19.7685C25.652 19.8053 25.5424 19.8205 25.4331 19.8132Z" fill="black"/>
<path d="M100.647 15.5876C99.7066 14.0385 98.2296 13.4946 96.4752 13.6351C95.8821 13.6754 95.3047 13.8441 94.7832 14.1296C94.2617 14.4151 93.8085 14.8105 93.4549 15.2885C93.1013 15.7664 92.8558 16.3155 92.7354 16.8977C92.615 17.48 92.6226 18.0814 92.7576 18.6604C93.1935 20.6741 94.8109 21.935 97.628 21.935C98.2763 21.8807 98.8999 21.6616 99.4396 21.2984C99.9793 20.9352 100.417 20.4401 100.712 19.86C101.101 19.2129 101.301 18.4696 101.29 17.7145C101.278 16.9594 101.056 16.2225 100.647 15.5876ZM96.9327 19.95C96.6492 19.9488 96.3689 19.8893 96.1094 19.7752C95.8498 19.6611 95.6165 19.4948 95.4239 19.2867C95.2313 19.0785 95.0836 18.833 94.9899 18.5654C94.8962 18.2978 94.8586 18.0138 94.8794 17.731C94.8894 17.1797 95.118 16.655 95.5149 16.2723C95.9118 15.8896 96.4445 15.6802 96.9958 15.6902C97.547 15.7003 98.0718 15.9289 98.4545 16.3258C98.8372 16.7227 99.0466 17.2554 99.0365 17.8066C99.0469 18.0875 98.9998 18.3676 98.8983 18.6297C98.7967 18.8918 98.6428 19.1304 98.4459 19.331C98.249 19.5317 98.0132 19.69 97.7531 19.7964C97.4929 19.9029 97.2138 19.9551 96.9327 19.95Z" fill="black"/>
<path d="M87.4984 13.5955C86.9433 13.5725 86.3891 13.6604 85.8684 13.8541C85.3476 14.0478 84.8707 14.3434 84.4656 14.7236C84.0605 15.1038 83.7352 15.561 83.5089 16.0685C83.2826 16.5759 83.1597 17.1233 83.1475 17.6788C83.1353 18.2343 83.234 18.7866 83.4378 19.3035C83.6416 19.8204 83.9464 20.2914 84.3344 20.6891C84.7224 21.0867 85.1859 21.403 85.6976 21.6194C86.2093 21.8358 86.7591 21.948 87.3147 21.9494C89.7391 22.0179 91.7636 20.314 91.7744 17.8139C91.7852 15.4003 89.9732 13.6171 87.4984 13.5955ZM87.4516 19.9501C87.1708 19.9491 86.8932 19.8909 86.6357 19.7789C86.3782 19.667 86.1462 19.5037 85.954 19.299C85.7618 19.0943 85.6134 18.8525 85.5178 18.5885C85.4222 18.3245 85.3816 18.0438 85.3982 17.7635C85.3795 17.4815 85.42 17.1988 85.5169 16.9334C85.6139 16.668 85.7652 16.4258 85.9613 16.2223C86.1573 16.0188 86.3937 15.8585 86.6553 15.7517C86.9169 15.6449 87.1979 15.5939 87.4804 15.602C87.7617 15.5993 88.0406 15.6539 88.3 15.7625C88.5595 15.8711 88.7942 16.0314 88.9897 16.2337C89.1852 16.4359 89.3374 16.6759 89.4372 16.9389C89.5369 17.2019 89.582 17.4824 89.5698 17.7635C89.582 18.0481 89.5362 18.3323 89.4349 18.5986C89.3337 18.8649 89.1793 19.1078 88.981 19.3124C88.7828 19.5171 88.5449 19.6791 88.282 19.7888C88.019 19.8984 87.7365 19.9533 87.4516 19.9501Z" fill="black"/>
<path d="M64.6517 15.3607C63.6682 13.9557 62.2345 13.4874 60.5666 13.6423C59.9903 13.6848 59.4298 13.8497 58.9223 14.1259C58.4148 14.4022 57.9721 14.7835 57.6237 15.2445C57.2753 15.7054 57.0291 16.2353 56.9017 16.7989C56.7744 17.3625 56.7686 17.9468 56.8849 18.5127C57.2452 20.6345 58.9023 21.935 61.0889 21.935C62.8036 21.935 64.2374 21.1461 64.9291 19.7484C65.306 19.0667 65.4801 18.2914 65.431 17.514C65.3818 16.7366 65.1114 15.9895 64.6517 15.3607ZM61.0925 19.9501C60.8118 19.95 60.534 19.8927 60.2762 19.7816C60.0183 19.6706 59.7859 19.508 59.593 19.304C59.4001 19.1 59.2509 18.8588 59.1544 18.5952C59.0579 18.3315 59.0163 18.051 59.0319 17.7707C59.0128 17.4895 59.0526 17.2075 59.1487 16.9426C59.2448 16.6777 59.3951 16.4358 59.5901 16.2323C59.7851 16.0289 60.0204 15.8684 60.281 15.7611C60.5415 15.6538 60.8216 15.602 61.1033 15.6092C61.3855 15.605 61.6656 15.6585 61.9263 15.7665C62.1871 15.8744 62.423 16.0345 62.6197 16.2369C62.8164 16.4393 62.9696 16.6797 63.07 16.9435C63.1704 17.2072 63.2158 17.4887 63.2035 17.7707C63.2137 18.0538 63.1666 18.3362 63.065 18.6007C62.9634 18.8652 62.8094 19.1065 62.6122 19.31C62.4151 19.5135 62.1788 19.6752 61.9177 19.7852C61.6566 19.8951 61.3759 19.9512 61.0925 19.9501Z" fill="black"/>
<path d="M102.747 28.7399C102.989 27.8069 102.477 27.2089 101.591 27.3278C101.3 27.3813 101.033 27.5231 100.825 27.7338C100.618 27.9446 100.48 28.2141 100.431 28.5057C100.358 28.7457 100.372 29.0034 100.468 29.2348C100.565 29.4661 100.739 29.6566 100.961 29.7738C101.213 29.8846 101.493 29.9205 101.766 29.877C102.038 29.8336 102.293 29.7127 102.499 29.5288C102.489 29.4747 102.467 29.4235 102.435 29.3792C102.402 29.3349 102.36 29.2986 102.311 29.273C102.149 29.4179 101.944 29.5075 101.727 29.5288C101.511 29.5502 101.292 29.5023 101.105 29.3919C100.996 29.3268 100.912 29.2273 100.867 29.1092C100.821 28.9911 100.816 28.8611 100.852 28.7399H102.747ZM101.922 27.688C102.265 27.76 102.419 27.9834 102.391 28.4085H100.903C100.948 28.1804 101.078 27.9782 101.268 27.8441C101.458 27.7099 101.692 27.654 101.922 27.688Z" fill="black"/>
<path d="M92.6465 27.3242C92.4605 27.3222 92.2761 27.3577 92.1042 27.4286C91.9323 27.4995 91.7764 27.6043 91.646 27.7368C91.5155 27.8693 91.4131 28.0267 91.3448 28.1997C91.2766 28.3727 91.2439 28.5576 91.2488 28.7435C91.2431 28.9015 91.2711 29.0589 91.3306 29.2054C91.3902 29.3519 91.4801 29.4841 91.5945 29.5933C91.7088 29.7025 91.845 29.7863 91.994 29.8391C92.143 29.892 92.3016 29.9127 92.4592 29.8999C92.6467 29.902 92.8326 29.8659 93.0057 29.7936C93.1787 29.7213 93.3351 29.6144 93.4653 29.4794C93.5955 29.3445 93.6968 29.1844 93.7629 29.0089C93.829 28.8334 93.8585 28.6462 93.8497 28.4589C93.8527 28.3032 93.823 28.1486 93.7627 28.005C93.7024 27.8614 93.6127 27.732 93.4993 27.6251C93.386 27.5182 93.2516 27.4363 93.1047 27.3844C92.9579 27.3326 92.8018 27.3121 92.6465 27.3242ZM92.4916 29.5072C92.3825 29.5112 92.2737 29.4928 92.1719 29.4533C92.0701 29.4138 91.9774 29.3539 91.8996 29.2774C91.8217 29.2009 91.7602 29.1093 91.7189 29.0082C91.6776 28.9071 91.6574 28.7986 91.6594 28.6895C91.6651 28.4345 91.7657 28.1909 91.9417 28.0063C92.1176 27.8217 92.3561 27.7095 92.6104 27.6916C92.7194 27.6864 92.8282 27.7041 92.9298 27.7436C93.0314 27.7832 93.1236 27.8436 93.2004 27.9211C93.2771 27.9985 93.3368 28.0912 93.3754 28.1932C93.414 28.2951 93.4308 28.4041 93.4246 28.513C93.4305 28.7679 93.336 29.015 93.1615 29.2009C92.987 29.3869 92.7464 29.4969 92.4916 29.5072Z" fill="black"/>
<path d="M14.9467 11.4557L14.871 11.5241C14.8428 11.4952 14.8234 11.4588 14.8151 11.4193C14.8068 11.3797 14.8099 11.3386 14.8242 11.3008C14.9178 11.3116 14.9286 11.3872 14.9467 11.4557Z" fill="black"/>
<path d="M21.1349 14.4925H21.0557L21.1385 14.2583C21.2178 14.352 21.2142 14.4096 21.1349 14.4925Z" fill="black"/>
</g>
<defs>
<clipPath id="clip0_53_3596">
<rect width="108.918" height="32" fill="white"/>
</clipPath>
</defs>
</svg>
