<svg width="187" height="55" viewBox="0 0 187 55" fill="none" xmlns="http://www.w3.org/2000/svg">
<g clip-path="url(#clip0_116_8)">
<path d="M0 26.0046C0.20095 26.9684 0.20095 27.9633 0 28.9271L0 26.0046Z" fill="#00B84B"/>
<path d="M26.6444 54.8948H28.2401C28.2711 54.8948 28.2834 54.9443 28.2711 54.969C28.2587 54.9938 28.2711 54.969 28.234 54.969H26.6506C26.6135 54.969 26.595 54.9257 26.6073 54.9009C26.6197 54.8762 26.6321 54.8948 26.6444 54.8948Z" fill="#00B84B"/>
<path d="M26.6445 54.8947C26.6478 54.9297 26.6478 54.9649 26.6445 54.9999H25.9209C25.9239 54.9649 25.9239 54.9297 25.9209 54.8947H26.6445Z" fill="#00B84B"/>
<path d="M28.2337 54.9999C28.2307 54.9649 28.2307 54.9297 28.2337 54.8947H28.9635C28.9635 54.8947 28.9635 54.9628 28.9635 54.9937L28.2337 54.9999Z" fill="#00B84B"/>
<path d="M84.7327 17.7513V21.3487H74.2988V25.7571H84.0771V29.3854H74.2741V37.3416H70.3467V17.7513H84.7327Z" fill="black"/>
<path d="M133.495 27.0449H130.959V23.7447H133.495C133.495 22.9398 133.495 22.1968 133.495 21.4476C133.569 19.132 134.886 17.4045 137.02 16.9464C137.973 16.7385 138.958 16.7274 139.915 16.9137C140.872 17.1 141.781 17.4798 142.587 18.0299C142.092 18.9958 141.616 19.9307 141.127 20.8966C140.389 20.5218 139.579 20.3106 138.752 20.2774C138.57 20.2631 138.386 20.2848 138.212 20.3415C138.038 20.3981 137.877 20.4885 137.738 20.6076C137.599 20.7266 137.485 20.8719 137.402 21.0352C137.319 21.1985 137.269 21.3765 137.255 21.5591C137.165 22.2778 137.146 23.0037 137.2 23.7262H141.374V27.0634H137.181V37.3229H133.507L133.495 27.0449Z" fill="black"/>
<path d="M187 36.2642C185.922 37.0788 184.635 37.5705 183.289 37.6821C182.44 37.774 181.581 37.7259 180.747 37.5397C179.815 37.3075 178.985 36.7763 178.383 36.0272C177.781 35.2781 177.441 34.3523 177.414 33.3913C177.247 31.5338 177.364 29.6764 177.327 27.856V27.0883H174.785V23.7448H177.327V19.7512H181.069V23.7324H185.937V27.0635H181.069C181.069 28.4876 181.069 29.8807 181.069 31.2738C181.036 31.7598 181.059 32.248 181.137 32.7288C181.177 32.9866 181.27 33.2331 181.412 33.4522C181.553 33.6714 181.739 33.8583 181.957 34.0009C182.175 34.1434 182.421 34.2383 182.678 34.2794C182.935 34.3205 183.198 34.307 183.45 34.2396C183.826 34.1663 184.195 34.0586 184.551 33.9176C184.91 33.7814 185.244 33.5956 185.646 33.4037C186.091 34.351 186.536 35.2921 187 36.2642Z" fill="black"/>
<path d="M87.127 23.7633H90.6585V25.0759C92.3903 23.4001 94.3055 22.946 96.4043 23.7138L95.8662 27.3297C95.2339 27.1252 94.5802 26.9943 93.918 26.9396C91.9326 26.8653 90.7884 27.9364 90.7822 29.9301C90.7822 32.2024 90.7822 34.4748 90.7822 36.7409V37.3229H87.1331L87.127 23.7633Z" fill="black"/>
<path d="M165.644 51.2354C165.432 51.3131 165.2 51.3131 164.988 51.2354C165.081 50.4838 165.224 49.7392 165.415 49.0064C165.507 48.5421 165.563 48.0901 165.118 47.8053C164.891 47.6658 164.626 47.6005 164.36 47.6182C164.094 47.636 163.84 47.7359 163.633 47.9043C163.261 48.194 163.016 48.6187 162.953 49.0869C162.799 49.7928 162.65 50.5048 162.508 51.1859C162.291 51.3716 162.093 51.2726 161.784 51.3097L162.675 47.0994C162.884 47.0194 163.115 47.0194 163.324 47.0994V47.4152C163.38 47.4152 163.436 47.378 163.479 47.3533C163.826 47.1038 164.246 46.9774 164.673 46.9942C164.886 46.9787 165.101 47.0122 165.3 47.0923C165.499 47.1724 165.677 47.2969 165.821 47.4563C165.965 47.6157 166.07 47.8058 166.13 48.0122C166.189 48.2186 166.2 48.4358 166.163 48.6473C166.058 49.4894 165.829 50.35 165.644 51.2354Z" fill="#00B84B"/>
<path d="M167.758 51.2045C167.53 51.3345 167.332 51.2726 167.041 51.285C167.35 49.8424 167.66 48.4493 167.938 47.0809C168.137 47.0069 168.357 47.0069 168.556 47.0809V47.3471C168.622 47.3398 168.686 47.3253 168.748 47.3038C169.17 47.0113 169.69 46.8978 170.195 46.988C170.403 47.0162 170.601 47.0894 170.778 47.2025C170.954 47.3156 171.103 47.4659 171.215 47.6429C171.327 47.8199 171.399 48.0192 171.426 48.227C171.453 48.4347 171.434 48.6458 171.37 48.8455C171.222 49.638 171.03 50.4244 170.857 51.2107C170.751 51.2676 170.632 51.2974 170.511 51.2974C170.39 51.2974 170.271 51.2676 170.164 51.2107C170.307 50.5172 170.443 49.83 170.585 49.1427C170.771 48.2883 170.647 47.9044 170.146 47.6877C169.816 47.5782 169.457 47.5904 169.135 47.7221C168.813 47.8538 168.549 48.0963 168.389 48.4059C168.206 48.8575 168.078 49.3293 168.006 49.8114C167.944 50.282 167.851 50.7711 167.758 51.2045Z" fill="#00B84B"/>
<path d="M141.294 50.8021L141.659 50.2758C141.963 50.4937 142.312 50.6397 142.681 50.703C143.049 50.7663 143.427 50.7451 143.786 50.6411C143.86 50.6318 143.931 50.608 143.995 50.5712C144.06 50.5344 144.116 50.4853 144.161 50.4266C144.207 50.368 144.24 50.301 144.26 50.2294C144.279 50.1579 144.284 50.0832 144.275 50.0096C144.266 49.936 144.242 49.865 144.205 49.8006C144.168 49.7362 144.119 49.6796 144.061 49.6342C144.002 49.5888 143.935 49.5554 143.864 49.5358C143.792 49.5163 143.718 49.5111 143.644 49.5204C143.366 49.4709 143.081 49.4461 142.809 49.3718C142.321 49.2294 141.9 48.988 141.875 48.3936C141.857 48.1303 141.924 47.8682 142.065 47.6454C142.206 47.4227 142.415 47.2509 142.661 47.1552C143.097 46.9932 143.563 46.9303 144.026 46.971C144.489 47.0117 144.938 47.155 145.339 47.3905C145.325 47.5007 145.288 47.6066 145.23 47.7016C145.173 47.7965 145.096 47.8783 145.005 47.9416C144.509 47.6675 143.943 47.5468 143.378 47.5948C143.013 47.6506 142.624 47.762 142.611 48.214C142.599 48.666 142.982 48.7341 143.329 48.796C143.551 48.8332 143.774 48.8641 143.991 48.9198C144.485 49.0437 144.906 49.2666 144.986 49.8424C145.021 50.1184 144.961 50.398 144.818 50.6361C144.674 50.8742 144.455 51.057 144.195 51.155C143.72 51.3401 143.206 51.4047 142.7 51.3432C142.194 51.2816 141.711 51.0957 141.294 50.8021Z" fill="#00B84B"/>
<path d="M137.187 47.0561C137.41 46.9691 137.657 46.9691 137.88 47.0561C137.738 47.7434 137.596 48.4306 137.447 49.1241C137.249 50.0404 137.398 50.4429 137.998 50.6286C138.343 50.7315 138.715 50.6943 139.033 50.5252C139.351 50.3561 139.59 50.0686 139.698 49.7247C139.915 49.0498 140.026 48.344 140.181 47.6567C140.23 47.44 140.286 47.2295 140.335 47.0375C140.558 46.969 140.797 46.9755 141.016 47.0561C140.799 48.0158 140.645 48.9941 140.36 49.929C140.266 50.1985 140.119 50.4467 139.929 50.6589C139.738 50.8712 139.507 51.0434 139.249 51.1656C138.991 51.2877 138.712 51.3573 138.427 51.3704C138.142 51.3834 137.857 51.3397 137.589 51.2416C137.239 51.1174 136.95 50.8629 136.781 50.5309C136.613 50.1989 136.579 49.8149 136.686 49.4584C136.816 48.6597 137.008 47.8734 137.187 47.0561Z" fill="#00B84B"/>
<path d="M185.244 47.6753H183.555C183.313 48.4461 183.143 49.238 183.048 50.0405C183.033 50.1427 183.043 50.2472 183.079 50.3443C183.114 50.4414 183.174 50.528 183.251 50.5964C183.328 50.6647 183.422 50.7125 183.522 50.7355C183.623 50.7584 183.728 50.7558 183.827 50.7278C184.089 50.6748 184.345 50.6002 184.594 50.5049C184.767 50.5854 184.792 50.7711 184.866 50.9321C184.596 51.1745 184.26 51.3306 183.901 51.3803C183.542 51.4299 183.176 51.3709 182.85 51.2107C182.626 51.0685 182.455 50.8558 182.364 50.6059C182.274 50.3561 182.268 50.0832 182.349 49.83C182.43 49.4337 182.516 49.0375 182.597 48.6412C182.658 48.3502 182.714 48.022 182.782 47.7248L181.978 47.6753C181.873 47.44 181.978 47.2667 182.083 47.0561L182.931 46.9942L183.221 45.7559C183.438 45.6197 183.636 45.6878 183.84 45.6878C183.933 46.1398 183.654 46.5299 183.704 46.9261C183.962 46.9934 184.23 47.0123 184.495 46.9818C184.755 46.9818 185.015 46.9818 185.268 46.9818C185.405 47.2605 185.299 47.4338 185.244 47.6753Z" fill="#00B84B"/>
<path d="M149.389 47.0004C149.454 47.2184 149.434 47.4527 149.334 47.6567H147.614C147.447 48.4306 147.268 49.1489 147.151 49.8857C147.119 50.0049 147.121 50.1305 147.156 50.2488C147.191 50.3671 147.258 50.4734 147.349 50.5564C147.44 50.6394 147.552 50.6958 147.673 50.7194C147.794 50.7431 147.919 50.7331 148.035 50.6906C148.245 50.6337 148.452 50.5633 148.653 50.48C148.845 50.5482 148.87 50.7463 148.95 50.9011C148.679 51.1412 148.344 51.2966 147.986 51.3484C147.627 51.4001 147.262 51.3457 146.934 51.1921C146.316 50.802 146.316 50.2014 146.476 49.5761C146.637 48.9507 146.73 48.3378 146.866 47.7186L146.062 47.6629C145.945 47.44 146.062 47.2728 146.155 47.0437L147.008 46.9818L147.299 45.7435C147.503 45.5887 147.701 45.6754 147.917 45.6568C148.01 46.115 147.738 46.505 147.788 46.9756L149.389 47.0004Z" fill="#00B84B"/>
<path d="M135.35 45.0501C135.597 44.9882 135.856 44.9882 136.104 45.0501C135.745 46.6846 135.535 48.3502 135.016 49.9414C134.901 50.3348 134.666 50.6818 134.342 50.9331C134.019 51.1844 133.625 51.3271 133.216 51.3407C132.817 51.3991 132.41 51.3455 132.04 51.1859C131.669 51.0263 131.351 50.767 131.119 50.4368L131.614 49.991C131.811 50.157 132.018 50.3121 132.232 50.4553C133.179 50.9878 134.174 50.4925 134.471 49.2975C134.713 48.3378 134.892 47.3595 135.09 46.3936C135.164 45.9602 135.251 45.5206 135.35 45.0501Z" fill="#00B84B"/>
<path d="M155.772 50.7153C154.733 51.5883 153.366 51.5574 152.649 50.7153C152.296 50.2256 152.145 49.6189 152.227 49.0207C152.309 48.4226 152.617 47.8788 153.088 47.5019C153.311 47.3125 153.57 47.169 153.849 47.0799C154.128 46.9907 154.422 46.9576 154.714 46.9823C155.006 47.007 155.29 47.0892 155.55 47.224C155.81 47.3589 156.041 47.5438 156.23 47.7681C156.129 47.9388 155.974 48.0716 155.791 48.1458C154.733 47.5266 153.978 47.5266 153.36 48.1953C153.116 48.4678 152.969 48.8128 152.94 49.1774C152.91 49.542 153.002 49.9061 153.199 50.2138C153.7 50.8701 154.374 50.8949 155.42 50.3129C155.576 50.4074 155.699 50.548 155.772 50.7153Z" fill="#00B84B"/>
<path d="M181.266 47.7435C181.141 47.9157 180.97 48.0488 180.772 48.1273C179.869 47.4463 179.021 47.4524 178.397 48.1273C178.13 48.4074 177.97 48.7729 177.947 49.1593C177.923 49.5456 178.036 49.928 178.267 50.2387C178.768 50.8578 179.504 50.8578 180.388 50.2387C180.563 50.3323 180.706 50.477 180.796 50.6535C180.405 51.0692 179.866 51.313 179.295 51.3316C178.725 51.3502 178.171 51.142 177.753 50.7526C177.375 50.2852 177.189 49.6903 177.235 49.0903C177.281 48.4903 177.555 47.9308 178.001 47.5267C178.227 47.3207 178.492 47.1624 178.78 47.0614C179.069 46.9604 179.375 46.9188 179.68 46.9391C179.985 46.9593 180.282 47.041 180.555 47.1792C180.828 47.3174 181.07 47.5093 181.266 47.7435Z" fill="#00B84B"/>
<path d="M54.73 24.0853C53.9903 17.5198 50.8352 11.4653 45.8795 7.10173C42.9152 4.35509 39.3684 2.31562 35.505 1.13612C31.6415 -0.0433763 27.5615 -0.33231 23.5706 0.290966C17.627 1.06741 12.1241 3.84478 7.96613 8.16668C3.82922 12.3266 1.1494 17.716 0.327799 23.528C0.298831 24.244 0.188863 24.9544 0 25.6456L0 26.0047C0.10512 26.976 0.10512 27.9558 0 28.9271L0 29.2924C0.148437 30.5307 0.185547 31.8186 0.451497 33.0693C1.41664 37.7859 3.60766 42.1642 6.80337 45.7621C9.39174 48.7221 12.5964 51.0785 16.192 52.6657C19.2515 54.1213 22.5894 54.8965 25.9765 54.938H28.1969C28.449 54.9535 28.7021 54.941 28.9514 54.9009C30.0021 54.8318 31.0487 54.7099 32.0872 54.5356C39.049 53.3494 45.2866 49.5233 49.5034 43.8524C53.7203 38.1815 55.5922 31.102 54.73 24.0853ZM27.4423 52.3623C22.5232 52.3538 17.717 50.8853 13.6314 48.1427C9.54583 45.4001 6.36422 41.5064 4.48881 36.9538C2.6134 32.4013 2.1284 27.3943 3.09513 22.5658C4.06185 17.7374 6.43688 13.3043 9.91999 9.82689C13.4031 6.34952 17.8379 3.98403 22.6637 3.02946C27.4896 2.07489 32.4898 2.57411 37.0322 4.46399C41.5747 6.35388 45.4555 9.54958 48.184 13.6471C50.9124 17.7446 52.3661 22.56 52.3612 27.4845C52.3613 30.7572 51.7162 33.9978 50.4631 37.0206C49.21 40.0433 47.3734 42.7889 45.0585 45.0999C42.7437 47.4109 39.9961 49.242 36.9732 50.4882C33.9503 51.7344 30.7115 52.3713 27.4423 52.3623Z" fill="#00B84B"/>
<path d="M127.842 23.7695H124.316L124.26 25.0078C124.168 24.9707 124.131 24.9645 124.106 24.9397C121.861 22.5993 117.717 22.8965 115.558 25.4474C114.857 26.289 114.346 27.2728 114.061 28.331C113.776 29.3892 113.723 30.4966 113.907 31.5771C114.069 33.1456 114.803 34.599 115.97 35.6583C117.136 36.7177 118.653 37.3083 120.228 37.3167C120.984 37.3284 121.735 37.1787 122.429 36.8776C123.123 36.5766 123.745 36.1311 124.254 35.5707C124.254 36.0165 124.254 36.3323 124.254 36.648C124.259 37.3849 124.011 38.1009 123.551 38.6768C123.092 39.2526 122.45 39.6533 121.731 39.812C120.859 40.0109 119.956 40.0278 119.078 39.8615C117.953 39.6615 116.879 39.2406 115.917 38.6232C115.472 39.6386 115.045 40.6169 114.593 41.6385C115.863 42.4855 117.319 43.0123 118.836 43.174C120.762 43.5332 122.751 43.2731 124.52 42.431C126.994 41.137 127.916 38.9637 127.922 36.2951C127.922 32.3366 127.922 28.3781 127.922 24.4196C127.974 24.2003 127.946 23.9694 127.842 23.7695ZM121.038 33.8928C120.578 33.8969 120.123 33.8065 119.699 33.6272C119.276 33.4479 118.894 33.1834 118.577 32.8503C118.26 32.5171 118.014 32.1223 117.856 31.6903C117.697 31.2583 117.629 30.7983 117.655 30.3388C117.621 29.8776 117.686 29.4145 117.844 28.98C118.002 28.5454 118.25 28.1493 118.572 27.8177C118.894 27.486 119.282 27.2264 119.711 27.0558C120.141 26.8853 120.601 26.8077 121.063 26.8282C123.03 26.8282 124.403 28.2832 124.403 30.3512C124.427 30.807 124.358 31.2631 124.201 31.6915C124.044 32.12 123.801 32.5118 123.487 32.8432C123.173 33.1746 122.795 33.4385 122.377 33.619C121.958 33.7994 121.507 33.8926 121.051 33.8928H121.038Z" fill="black"/>
<path d="M47.5373 31.9672C47.3801 31.1124 46.9449 30.3337 46.2993 29.7524C45.6538 29.1712 44.8343 28.82 43.9686 28.7538C43.1348 28.6772 42.2988 28.875 41.5875 29.3172C41.0265 29.6681 40.5591 30.15 40.2251 30.7216C39.8912 31.2932 39.7007 31.9373 39.6702 32.5988C37.4374 30.8837 36.5159 26.3576 37.8147 23.6333C40.1959 23.3856 41.6493 22.234 42.0761 20.2775C42.2583 19.4128 42.1649 18.5127 41.8092 17.704C41.4534 16.8953 40.8532 16.2187 40.093 15.7694C39.3329 15.3202 38.4511 15.1211 37.5719 15.2001C36.6927 15.279 35.8604 15.6321 35.1923 16.2096C34.5277 16.7854 34.0622 17.5569 33.8625 18.4138C33.7199 19.0385 33.7151 19.6868 33.8487 20.3134C33.9822 20.9401 34.2508 21.5301 34.6357 22.0421C33.757 22.3827 32.8145 22.5265 31.8744 22.4634C30.9343 22.4003 30.0194 22.1318 29.1941 21.6768C28.3688 21.2218 27.653 20.5913 27.0972 19.8297C26.5414 19.0681 26.1589 18.1938 25.9768 17.2683C27.9745 15.7576 28.6487 13.5967 27.7704 11.4978C27.3741 10.5205 26.6584 9.70673 25.7404 9.18924C24.8224 8.67175 23.7562 8.48117 22.716 8.64862C21.6758 8.81606 20.723 9.33165 20.0133 10.1112C19.3036 10.8907 18.8789 11.8881 18.8085 12.9404C18.5921 15.2065 19.9033 16.9773 22.4885 17.8937C23.107 21.9863 19.5816 25.6394 15.9573 25.2741C16.3037 22.6427 15.5305 20.94 13.5885 20.1041C12.7463 19.734 11.8061 19.6505 10.9119 19.8664C10.0178 20.0824 9.21899 20.5858 8.63792 21.2995C8.05685 22.0133 7.72554 22.8981 7.69474 23.8184C7.66395 24.7387 7.93536 25.6437 8.46741 26.3948C8.97522 27.1442 9.71695 27.7038 10.5765 27.986C11.2114 28.1936 11.8857 28.2514 12.5467 28.1547C13.2076 28.058 13.8373 27.8096 14.3863 27.4288L23.6389 37.1496C22.402 39.973 22.6555 42.1524 24.3811 43.8737C25.1664 44.6467 26.1689 45.1612 27.2544 45.3482C28.3398 45.5352 29.4564 45.3858 30.4547 44.92C32.7183 43.8613 33.6152 41.9233 33.3554 38.5922L40.4123 35.0382C42.0266 36.71 43.814 37.1062 45.5211 36.1961C46.2606 35.7952 46.8542 35.1699 47.2165 34.4101C47.5788 33.6502 47.6911 32.795 47.5373 31.9672ZM11.9 25.6394C11.4706 25.6242 11.0628 25.4475 10.7578 25.1445C10.4529 24.8415 10.2733 24.4345 10.2548 24.0048C10.2645 23.563 10.4467 23.1425 10.7623 22.8335C11.0779 22.5245 11.5019 22.3515 11.9433 22.3517C12.1561 22.3565 12.3659 22.4032 12.5607 22.4892C12.7554 22.5753 12.9314 22.6988 13.0784 22.8529C13.2254 23.007 13.3407 23.1886 13.4176 23.3873C13.4945 23.586 13.5316 23.798 13.5266 24.011C13.5234 24.4419 13.351 24.8542 13.0466 25.1589C12.7423 25.4635 12.3304 25.6362 11.9 25.6394ZM37.9322 17.7451C38.3639 17.7482 38.7775 17.9191 39.0857 18.2218C39.3938 18.5245 39.5723 18.9353 39.5836 19.3673C39.591 19.5837 39.5552 19.7994 39.4784 20.0019C39.4015 20.2043 39.2851 20.3893 39.1359 20.5461C38.9867 20.7029 38.8078 20.8284 38.6096 20.9152C38.4115 21.0019 38.198 21.0482 37.9817 21.0514C37.5414 21.0548 37.1174 20.8845 36.8015 20.5775C36.4855 20.2705 36.3029 19.8513 36.2932 19.4106C36.3053 18.977 36.4812 18.564 36.7853 18.255C37.0894 17.9459 37.4992 17.7637 37.9322 17.7451ZM25.6614 19.6893C27.1025 22.3145 30.4485 24.4939 34.9387 23.1751L29.7991 34.9392C29.2656 34.8305 28.723 34.7725 28.1786 34.7658C27.9374 33.3851 27.7024 32.0539 27.4674 30.7227L25.5315 19.8131C25.4944 19.6831 25.5501 19.6521 25.6614 19.6893ZM21.332 13.2933C21.3385 12.7399 21.5644 12.2118 21.9599 11.8252C22.3555 11.4385 22.8882 11.225 23.441 11.2315C23.9938 11.2381 24.5214 11.4642 24.9076 11.8602C25.2938 12.2561 25.5071 12.7895 25.5006 13.3429C25.494 13.8963 25.2681 14.4244 24.8726 14.811C24.4771 15.1977 23.9443 15.4112 23.3915 15.4047C22.8387 15.3981 22.3112 15.172 21.925 14.776C21.5387 14.3801 21.3254 13.8467 21.332 13.2933ZM16.081 26.5248C20.2311 26.1719 22.7298 23.9553 23.7193 19.9679C24.6017 24.979 25.482 29.988 26.3603 34.9949L24.913 35.7812L16.081 26.5248ZM28.2034 42.8397C27.8383 42.843 27.4763 42.7733 27.1386 42.6346C26.8009 42.4959 26.4942 42.2911 26.2367 42.0321C25.9791 41.7731 25.7759 41.4652 25.6388 41.1265C25.5018 40.7878 25.4338 40.425 25.4387 40.0596C25.4335 39.6938 25.5025 39.3307 25.6415 38.9923C25.7804 38.6539 25.9865 38.3472 26.2473 38.0908C26.508 37.8344 26.818 37.6336 27.1585 37.5006C27.4989 37.3675 27.8628 37.305 28.2281 37.3168C28.9505 37.3282 29.6391 37.6247 30.1441 38.1419C30.6492 38.6591 30.9297 39.355 30.9247 40.0782C30.9183 40.8065 30.6273 41.5033 30.1141 42.0194C29.6008 42.5355 28.9061 42.83 28.1786 42.8397H28.2034ZM32.5699 36.9267C32.216 36.5215 31.8269 36.1485 31.4071 35.8122C32.9864 32.1633 34.5676 28.5329 36.151 24.9212C36.1942 24.8654 36.2375 24.8593 36.287 24.9212C36.0549 26.6144 36.1792 28.3375 36.6519 29.9797C37.0701 31.4286 37.9362 32.7075 39.1259 33.6327L32.5699 36.9267ZM43.6656 34.0538C43.3182 34.0304 42.9926 33.8757 42.7548 33.6211C42.5169 33.3665 42.3846 33.0309 42.3846 32.6823C42.3846 32.3338 42.5169 31.9982 42.7548 31.7436C42.9926 31.4889 43.3182 31.3343 43.6656 31.3109C43.8532 31.2983 44.0415 31.3244 44.2186 31.3876C44.3958 31.4508 44.5581 31.5497 44.6955 31.6783C44.8328 31.8069 44.9423 31.9624 45.0172 32.1351C45.0921 32.3078 45.1307 32.4941 45.1307 32.6823C45.1307 32.8706 45.0921 33.0569 45.0172 33.2296C44.9423 33.4023 44.8328 33.5578 44.6955 33.6864C44.5581 33.8149 44.3958 33.9139 44.2186 33.9771C44.0415 34.0403 43.8532 34.0664 43.6656 34.0538Z" fill="#00B84B"/>
<path d="M172.799 26.791C171.185 24.1286 168.649 23.1937 165.637 23.4352C164.619 23.5045 163.628 23.7945 162.732 24.2852C161.837 24.7759 161.059 25.4555 160.452 26.277C159.845 27.0985 159.423 28.0422 159.216 29.0429C159.01 30.0436 159.023 31.0773 159.254 32.0724C160.003 35.5335 162.78 37.7006 167.616 37.7006C168.729 37.6074 169.8 37.2307 170.727 36.6065C171.653 35.9823 172.405 35.1313 172.911 34.1342C173.579 33.0221 173.923 31.7446 173.903 30.4467C173.884 29.1488 173.501 27.8824 172.799 26.791ZM166.423 34.289C165.936 34.2869 165.455 34.1847 165.009 33.9885C164.563 33.7924 164.163 33.5065 163.832 33.1488C163.501 32.7911 163.248 32.3692 163.087 31.9092C162.926 31.4492 162.862 30.961 162.897 30.475C162.914 29.5275 163.307 28.6257 163.988 27.9679C164.67 27.3101 165.584 26.9502 166.531 26.9675C167.477 26.9847 168.378 27.3776 169.035 28.0598C169.692 28.742 170.052 29.6575 170.035 30.605C170.052 31.0878 169.972 31.5692 169.797 32.0197C169.623 32.4702 169.359 32.8803 169.02 33.2251C168.682 33.5699 168.278 33.8421 167.831 34.025C167.384 34.2079 166.905 34.2978 166.423 34.289Z" fill="black"/>
<path d="M150.225 23.367C149.272 23.3274 148.32 23.4785 147.426 23.8115C146.532 24.1444 145.713 24.6525 145.018 25.306C144.322 25.9595 143.764 26.7453 143.375 27.6174C142.987 28.4895 142.776 29.4305 142.755 30.3852C142.734 31.3399 142.903 32.2892 143.253 33.1776C143.603 34.066 144.126 34.8756 144.792 35.5591C145.459 36.2426 146.254 36.7862 147.133 37.1581C148.011 37.5301 148.955 37.7229 149.909 37.7253C154.072 37.843 157.548 34.9143 157.566 30.6174C157.585 26.469 154.474 23.4042 150.225 23.367ZM150.144 34.289C149.662 34.2873 149.186 34.1872 148.743 33.9948C148.301 33.8023 147.903 33.5216 147.573 33.1698C147.243 32.818 146.988 32.4025 146.824 31.9487C146.66 31.495 146.59 31.0124 146.619 30.5307C146.587 30.0461 146.656 29.5601 146.823 29.104C146.989 28.6478 147.249 28.2315 147.586 27.8817C147.922 27.532 148.328 27.2565 148.777 27.0729C149.226 26.8893 149.709 26.8017 150.194 26.8157C150.677 26.8111 151.155 26.9049 151.601 27.0916C152.046 27.2782 152.449 27.5537 152.785 27.9013C153.121 28.2489 153.382 28.6613 153.553 29.1134C153.725 29.5655 153.802 30.0477 153.781 30.5307C153.802 31.0199 153.723 31.5083 153.549 31.966C153.376 32.4238 153.111 32.8412 152.77 33.1929C152.43 33.5447 152.021 33.8233 151.57 34.0117C151.119 34.2001 150.633 34.2945 150.144 34.289Z" fill="black"/>
<path d="M111 26.401C109.311 23.9862 106.85 23.1813 103.986 23.4476C102.997 23.5206 102.034 23.8039 101.163 24.2788C100.292 24.7536 99.5318 25.409 98.9336 26.2013C98.3354 26.9935 97.9129 27.9043 97.6941 28.873C97.4754 29.8416 97.4656 30.8458 97.6653 31.8186C98.2837 35.4655 101.129 37.7006 104.883 37.7006C107.827 37.7006 110.289 36.3447 111.476 33.9423C112.123 32.7707 112.422 31.4382 112.338 30.102C112.253 28.7659 111.789 27.4817 111 26.401ZM104.889 34.2891C104.407 34.289 103.93 34.1905 103.488 33.9995C103.045 33.8086 102.646 33.5293 102.315 33.1786C101.984 32.828 101.727 32.4134 101.562 31.9603C101.396 31.5071 101.325 31.0249 101.351 30.5431C101.319 30.0599 101.387 29.5752 101.552 29.1199C101.717 28.6646 101.975 28.2488 102.31 27.8991C102.645 27.5494 103.048 27.2736 103.496 27.0892C103.943 26.9047 104.424 26.8159 104.908 26.8282C105.392 26.821 105.873 26.9129 106.321 27.0985C106.768 27.284 107.174 27.5591 107.511 27.907C107.849 28.2548 108.112 28.6681 108.284 29.1214C108.457 29.5748 108.535 30.0586 108.514 30.5431C108.531 31.0299 108.45 31.5151 108.276 31.9698C108.101 32.4244 107.837 32.8391 107.498 33.1889C107.16 33.5387 106.754 33.8165 106.306 34.0056C105.858 34.1946 105.376 34.291 104.889 34.2891Z" fill="black"/>
<path d="M176.406 49.3965C176.82 47.7929 175.942 46.7651 174.42 46.9694C173.921 47.0615 173.462 47.3052 173.106 47.6674C172.749 48.0296 172.513 48.4928 172.429 48.9941C172.304 49.4065 172.327 49.8495 172.493 50.2471C172.659 50.6447 172.958 50.9722 173.338 51.1735C173.772 51.364 174.252 51.4256 174.72 51.351C175.188 51.2764 175.625 51.0686 175.979 50.7525C175.962 50.6595 175.925 50.5715 175.869 50.4953C175.813 50.4191 175.741 50.3567 175.657 50.3129C175.378 50.5619 175.027 50.7158 174.655 50.7525C174.282 50.7892 173.908 50.7068 173.585 50.5172C173.399 50.4052 173.255 50.2342 173.177 50.0312C173.098 49.8283 173.09 49.6049 173.153 49.3965H176.406ZM174.989 47.5886C175.577 47.7124 175.843 48.0963 175.793 48.8269H173.239C173.316 48.4348 173.541 48.0874 173.867 47.8568C174.192 47.6262 174.595 47.5302 174.989 47.5886Z" fill="#00B84B"/>
<path d="M159.063 46.9633C158.744 46.9599 158.427 47.0209 158.132 47.1428C157.837 47.2646 157.569 47.4448 157.345 47.6725C157.121 47.9002 156.945 48.1708 156.828 48.4681C156.711 48.7654 156.655 49.0833 156.663 49.4028C156.654 49.6744 156.702 49.945 156.804 50.1967C156.906 50.4484 157.061 50.6756 157.257 50.8634C157.453 51.0511 157.687 51.1951 157.943 51.2859C158.199 51.3768 158.471 51.4123 158.741 51.3903C159.063 51.394 159.383 51.3319 159.68 51.2076C159.977 51.0833 160.245 50.8996 160.469 50.6677C160.693 50.4357 160.866 50.1605 160.98 49.8589C161.093 49.5573 161.144 49.2356 161.129 48.9137C161.134 48.646 161.083 48.3802 160.979 48.1334C160.876 47.8866 160.722 47.6642 160.527 47.4806C160.333 47.2969 160.102 47.156 159.85 47.0669C159.598 46.9778 159.33 46.9425 159.063 46.9633ZM158.797 50.7154C158.61 50.7222 158.423 50.6906 158.248 50.6227C158.073 50.5548 157.914 50.4519 157.781 50.3204C157.647 50.1889 157.541 50.0314 157.471 49.8577C157.4 49.6839 157.365 49.4976 157.368 49.3099C157.378 48.8718 157.551 48.453 157.853 48.1358C158.155 47.8185 158.564 47.6256 159.001 47.5949C159.188 47.5859 159.375 47.6163 159.549 47.6843C159.724 47.7522 159.882 47.8561 160.014 47.9892C160.146 48.1223 160.248 48.2817 160.315 48.4569C160.381 48.6322 160.41 48.8194 160.399 49.0065C160.409 49.4447 160.247 49.8694 159.947 50.189C159.648 50.5086 159.235 50.6977 158.797 50.7154Z" fill="#00B84B"/>
<path d="M25.6614 19.6892L25.5315 19.8069C25.4831 19.7571 25.4497 19.6946 25.4355 19.6266C25.4213 19.5586 25.4267 19.488 25.4511 19.423C25.6119 19.4415 25.6305 19.5716 25.6614 19.6892Z" fill="#00B84B"/>
<path d="M36.2865 24.9088H36.1504L36.2926 24.5063C36.4287 24.6673 36.4225 24.7664 36.2865 24.9088Z" fill="#00B84B"/>
</g>
<defs>
<clipPath id="clip0_116_8">
<rect width="187" height="55" fill="white"/>
</clipPath>
</defs>
</svg>
