<svg width="61" height="32" viewBox="0 0 61 32" fill="none" xmlns="http://www.w3.org/2000/svg">
<path opacity="0.94" fill-rule="evenodd" clip-rule="evenodd" d="M14.2565 0.305135C17.7541 -0.0118849 21.0092 0.714727 24.0221 2.48497C23.7443 2.98357 23.4247 3.4486 23.063 3.88007C19.6307 1.92148 15.9977 1.44191 12.1638 2.44137C6.86829 4.07476 3.54041 7.57703 2.18017 12.9482C1.1408 19.3687 3.30611 24.3823 8.67608 27.9891C12.5419 30.1727 16.5819 30.5505 20.796 29.1226C26.09 26.9369 29.1272 22.9987 29.9077 17.3079C30.1171 15.0884 29.8264 12.9376 29.0358 10.8555C28.7093 10.1455 28.3896 9.44798 28.0766 8.7629C28.469 8.48678 28.8614 8.21068 29.2537 7.93456C29.3527 7.86922 29.4399 7.88376 29.5153 7.97816C31.7491 11.9857 32.2287 16.2001 30.954 20.6212C29.1525 25.8524 25.6212 29.3256 20.36 31.0408C13.9766 32.6027 8.52701 31.0187 4.01123 26.2888C0.446328 21.9384 -0.629057 17.0266 0.785073 11.5531C2.45513 6.39524 5.84114 2.89297 10.9431 1.04628C12.0409 0.713657 13.1453 0.46661 14.2565 0.305135Z" fill="black"/>
<path opacity="0.919" fill-rule="evenodd" clip-rule="evenodd" d="M24.3707 2.74658C26.3434 3.9091 27.9419 5.46404 29.1663 7.41143C28.7885 7.67301 28.4106 7.93459 28.0328 8.19617C27.923 8.28179 27.8068 8.31085 27.6841 8.28337C26.6232 6.64123 25.2717 5.28973 23.6296 4.22887C23.5714 4.14168 23.5714 4.05448 23.6296 3.96729C23.9333 3.59177 24.1804 3.18487 24.3707 2.74658Z" fill="black"/>
<path opacity="0.92" fill-rule="evenodd" clip-rule="evenodd" d="M6.49587 13.1226C9.04323 12.9532 10.1331 14.1448 9.76563 16.6976C9.52366 18.1452 8.66627 18.8428 7.19342 18.7902C5.37946 18.7341 4.50752 17.7896 4.57762 15.9564C4.47714 14.4804 5.11657 13.5358 6.49587 13.1226ZM7.10623 14.3433C6.20263 14.4794 5.79573 15.0171 5.88552 15.9564C5.80156 16.6079 6.03408 17.1021 6.58307 17.4387C7.85489 17.7656 8.49431 17.2715 8.50132 15.9564C8.57694 14.9425 8.1119 14.4048 7.10623 14.3433Z" fill="black"/>
<path opacity="0.949" fill-rule="evenodd" clip-rule="evenodd" d="M12.3376 13.1226C14.4659 12.8827 15.5414 13.8273 15.5638 15.9564C15.4983 18.2441 14.3357 19.1596 12.0761 18.703C11.989 19.3981 11.96 20.0957 11.9889 20.7956C11.5789 20.8349 11.172 20.893 10.7682 20.97C10.7536 18.5284 10.7682 16.087 10.8118 13.6458C11.3086 13.4097 11.8173 13.2354 12.3376 13.1226ZM12.5992 14.3433C12.4385 14.4116 12.2641 14.4698 12.0761 14.5177C11.989 15.5042 11.9599 16.4924 11.9889 17.4823C12.2649 17.5055 12.5411 17.5345 12.8172 17.5695C13.6551 17.574 14.1493 17.1671 14.2995 16.3488C14.5026 15.0058 13.9358 14.3373 12.5992 14.3433Z" fill="black"/>
<path opacity="0.917" fill-rule="evenodd" clip-rule="evenodd" d="M18.2671 13.1226C20.7172 12.928 21.8217 14.0615 21.5804 16.5231C20.3013 16.5086 19.0224 16.5231 17.7439 16.5667C18.0946 17.4312 18.734 17.7509 19.6622 17.5259C20.0796 17.4627 20.4866 17.3611 20.8829 17.2207C20.9964 17.6466 20.9964 18.068 20.8829 18.485C17.1943 19.4176 15.7847 18.0371 16.654 14.3433C17.0307 13.7189 17.5685 13.3121 18.2671 13.1226ZM18.8774 14.3433C18.3025 14.3989 17.9247 14.7041 17.7439 15.2588C18.5571 15.3024 19.371 15.3169 20.1853 15.3024C20.0249 14.6248 19.5889 14.3052 18.8774 14.3433Z" fill="black"/>
<path opacity="0.913" fill-rule="evenodd" clip-rule="evenodd" d="M24.0218 13.1226C25.2492 12.8866 26.2228 13.2644 26.9428 14.2561C27.0655 14.5663 27.1527 14.886 27.2043 15.2153C27.2479 16.4066 27.2625 17.5982 27.2479 18.7902C26.812 18.7902 26.376 18.7902 25.94 18.7902C25.9546 17.6273 25.94 16.4647 25.8964 15.3025C25.7278 14.6578 25.3064 14.3382 24.6321 14.3433C24.3449 14.363 24.0688 14.4211 23.8038 14.5177C23.7602 15.9416 23.7456 17.3657 23.7602 18.7902C23.3242 18.7902 22.8883 18.7902 22.4523 18.7902C22.4233 17.0744 22.4523 15.3596 22.5395 13.6458C23.0313 13.4336 23.5254 13.2592 24.0218 13.1226Z" fill="black"/>
<path opacity="0.918" fill-rule="evenodd" clip-rule="evenodd" d="M35.0083 13.1226C35.8591 13.091 36.702 13.1491 37.5369 13.297C37.5369 13.7039 37.5369 14.1108 37.5369 14.5177C36.8444 14.3876 36.1468 14.344 35.4443 14.3869C34.8902 14.5842 34.832 14.8458 35.2699 15.1717C35.7608 15.275 36.2549 15.3622 36.7522 15.4333C37.6118 15.6261 38.0188 16.1638 37.9729 17.0463C37.9719 17.9924 37.5069 18.5591 36.5778 18.7466C35.6055 18.8339 34.6464 18.7613 33.7004 18.5286C33.7004 18.1217 33.7004 17.7148 33.7004 17.3079C34.5352 17.4833 35.3781 17.5559 36.229 17.5259C36.687 17.3869 36.7742 17.1253 36.4906 16.7412C35.8285 16.5747 35.16 16.4293 34.4852 16.3052C33.9034 15.9847 33.6418 15.4906 33.7004 14.8229C33.6977 13.9109 34.1337 13.3441 35.0083 13.1226Z" fill="black"/>
<path opacity="0.93" fill-rule="evenodd" clip-rule="evenodd" d="M40.589 13.1227C43.0361 12.8667 44.1696 13.9712 43.9895 16.436C42.7106 16.436 41.4319 16.436 40.153 16.436C40.3764 17.348 40.9577 17.7112 41.8969 17.5259C42.3984 17.4518 42.8925 17.3501 43.3792 17.2207C43.4077 17.6318 43.3785 18.0386 43.292 18.4415C42.259 18.8371 41.2127 18.8806 40.153 18.5722C39.3695 18.1945 38.9189 17.5696 38.8015 16.6976C38.6426 15.7437 38.7879 14.8426 39.2375 13.9946C39.6041 13.5579 40.0546 13.2673 40.589 13.1227ZM41.1121 14.3434C41.892 14.2522 42.386 14.5718 42.5944 15.3025C41.7785 15.3314 40.9648 15.3023 40.153 15.2153C40.3142 14.7336 40.634 14.443 41.1121 14.3434Z" fill="black"/>
<path opacity="0.902" fill-rule="evenodd" clip-rule="evenodd" d="M46.431 13.1226C46.9259 13.1081 47.42 13.1227 47.9132 13.1662C47.9976 13.5499 48.0266 13.9423 48.0004 14.3433C47.5055 14.3288 47.0114 14.3434 46.5181 14.3869C46.4078 14.4138 46.306 14.4574 46.213 14.5177C46.1694 15.9416 46.1548 17.3657 46.1694 18.7902C45.7334 18.7902 45.2974 18.7902 44.8615 18.7902C44.8324 17.0453 44.8615 15.3015 44.9487 13.5586C45.4417 13.3704 45.9359 13.2251 46.431 13.1226Z" fill="black"/>
<path opacity="0.915" fill-rule="evenodd" clip-rule="evenodd" d="M48.6104 13.1226C49.1045 13.1226 49.5985 13.1226 50.0926 13.1226C50.5166 14.2923 50.9671 15.4549 51.4441 16.6103C51.9317 15.4893 52.3967 14.3558 52.8392 13.2098C53.3431 13.0958 53.8517 13.0958 54.3651 13.2098C53.6094 15.0408 52.8538 16.8719 52.0981 18.7029C51.6721 18.8165 51.2507 18.8165 50.8338 18.7029C50.032 16.8639 49.2909 15.0038 48.6104 13.1226Z" fill="black"/>
<path opacity="0.936" fill-rule="evenodd" clip-rule="evenodd" d="M56.4578 13.1226C58.9665 12.8121 60.1 13.9165 59.8583 16.436C58.5792 16.4214 57.3003 16.436 56.0218 16.4796C56.3241 17.3434 56.9345 17.6922 57.8529 17.5259C58.299 17.4652 58.7349 17.3635 59.1608 17.2207C59.2743 17.6467 59.2743 18.0681 59.1608 18.485C57.9334 18.9475 56.7417 18.8894 55.5858 18.3106C54.9271 17.6729 54.6074 16.8882 54.6267 15.9564C54.5781 14.551 55.1884 13.6064 56.4578 13.1226ZM56.9809 14.3433C57.7406 14.2287 58.2637 14.5193 58.5504 15.2153C57.7387 15.3023 56.9249 15.3314 56.109 15.3025C56.1312 15.0831 56.204 14.8796 56.327 14.6921C56.5462 14.561 56.7642 14.4447 56.9809 14.3433Z" fill="black"/>
</svg>
