<svg width="187" height="99" viewBox="0 0 187 99" fill="none" xmlns="http://www.w3.org/2000/svg">
<path opacity="0.94" fill-rule="evenodd" clip-rule="evenodd" d="M44.3107 0.944149C55.1819 -0.0366317 65.2997 2.21132 74.6643 7.68802C73.8009 9.23056 72.8073 10.6692 71.6832 12.0041C61.015 5.9447 49.7229 4.46105 37.8064 7.55314C21.3468 12.6064 11.0031 23.4416 6.77519 40.0586C3.54464 59.922 10.2748 75.4329 26.9658 86.5913C38.9815 93.347 51.5387 94.5159 64.6368 90.0981C81.0917 83.3362 90.532 71.1524 92.9578 53.5463C93.6088 46.68 92.7052 40.026 90.2477 33.5845C89.233 31.3879 88.2392 29.2298 87.2665 27.1104C88.4861 26.2561 89.7056 25.4019 90.9252 24.5477C91.2328 24.3455 91.5038 24.3905 91.7382 24.6826C98.6814 37.0808 100.172 50.1191 96.21 63.797C90.6105 79.9809 79.6345 90.7261 63.2817 96.0327C43.4407 100.865 26.5024 95.9642 12.4665 81.3311C1.38607 67.8722 -1.95644 52.6761 2.43896 35.7425C7.62983 19.7854 18.1542 8.95025 34.0121 3.23706C37.4242 2.20802 40.8569 1.44371 44.3107 0.944149Z" fill="#425563"/>
<path opacity="0.919" fill-rule="evenodd" clip-rule="evenodd" d="M75.7488 8.49731C81.8802 12.0938 86.8487 16.9045 90.6546 22.9292C89.4803 23.7385 88.3057 24.5477 87.1314 25.357C86.7902 25.6219 86.4289 25.7118 86.0473 25.6267C82.7499 20.5464 78.5492 16.3652 73.4451 13.0831C73.2644 12.8134 73.2644 12.5436 73.4451 12.2739C74.3891 11.1121 75.1571 9.85326 75.7488 8.49731Z" fill="#00a82d"/>
<path opacity="0.92" fill-rule="evenodd" clip-rule="evenodd" d="M20.1904 40.5981C28.1081 40.074 31.4958 43.7605 30.3535 51.6581C29.6014 56.1368 26.9365 58.2949 22.3585 58.1322C16.7204 57.9587 14.0102 55.0365 14.2281 49.3652C13.9158 44.7987 15.9033 41.8762 20.1904 40.5981ZM22.0875 44.3747C19.279 44.7955 18.0142 46.4591 18.2933 49.3652C18.0324 51.3808 18.7551 52.9095 20.4614 53.951C24.4145 54.9623 26.402 53.4336 26.4237 49.3652C26.6588 46.2284 25.2133 44.5649 22.0875 44.3747Z" fill="#425563"/>
<path opacity="0.949" fill-rule="evenodd" clip-rule="evenodd" d="M38.3484 40.5981C44.9636 39.856 48.3062 42.7782 48.3759 49.3651C48.1724 56.4427 44.5587 59.2751 37.5353 57.8624C37.2648 60.0129 37.1746 62.1709 37.2643 64.3365C35.99 64.4579 34.7254 64.6378 33.4701 64.876C33.4248 57.3223 33.4701 49.7692 33.6056 42.2166C35.1498 41.4864 36.7309 40.9469 38.3484 40.5981ZM39.1614 44.3746C38.6619 44.5859 38.1199 44.7658 37.5353 44.9141C37.2646 47.9661 37.1743 51.0233 37.2643 54.0858C38.1223 54.1576 38.9806 54.2474 39.8389 54.3556C42.4434 54.3696 43.9792 53.1106 44.4462 50.579C45.0774 46.4242 43.3158 44.356 39.1614 44.3746Z" fill="#425563"/>
<path opacity="0.917" fill-rule="evenodd" clip-rule="evenodd" d="M56.778 40.5982C64.3935 39.9961 67.8264 43.5029 67.0765 51.1186C63.1008 51.0735 59.1258 51.1186 55.1519 51.2535C56.2419 53.9281 58.2293 54.917 61.1142 54.2208C62.4118 54.0255 63.6767 53.7109 64.9084 53.2766C65.2613 54.5944 65.2613 55.8981 64.9084 57.1881C53.4437 60.0734 49.0622 55.8023 51.7642 44.3747C52.9353 42.443 54.6066 41.1843 56.778 40.5982ZM58.6751 44.3747C56.8883 44.5468 55.714 45.491 55.1519 47.2071C57.6797 47.342 60.2093 47.3868 62.7403 47.342C62.2416 45.2458 60.8866 44.2568 58.6751 44.3747Z" fill="#425563"/>
<path opacity="0.913" fill-rule="evenodd" clip-rule="evenodd" d="M74.6641 40.598C78.4791 39.8678 81.5053 41.0367 83.743 44.1048C84.1246 45.0644 84.3956 46.0536 84.5561 47.0722C84.6916 50.7578 84.7368 54.4443 84.6916 58.1321C83.3365 58.1321 81.9814 58.1321 80.6264 58.1321C80.6716 54.5344 80.6264 50.9375 80.4909 47.3419C79.9667 45.3476 78.6569 44.3587 76.5612 44.3746C75.6684 44.4353 74.8101 44.6152 73.9865 44.9141C73.851 49.3192 73.8057 53.7251 73.851 58.1321C72.4959 58.1321 71.1409 58.1321 69.7858 58.1321C69.6955 52.8239 69.7858 47.5186 70.0568 42.2166C71.5856 41.56 73.1212 41.0205 74.6641 40.598Z" fill="#425563"/>
<path opacity="0.918" fill-rule="evenodd" clip-rule="evenodd" d="M108.812 40.5981C111.456 40.5002 114.076 40.6802 116.671 41.1377C116.671 42.3966 116.671 43.6553 116.671 44.9142C114.519 44.5118 112.351 44.3769 110.167 44.5096C108.445 45.12 108.264 45.9293 109.625 46.9374C111.151 47.257 112.687 47.5268 114.232 47.7467C116.904 48.3433 118.169 50.0069 118.026 52.7371C118.023 55.664 116.578 57.4174 113.69 57.9973C110.668 58.2674 107.687 58.0427 104.747 57.3229C104.747 56.064 104.747 54.8053 104.747 53.5464C107.341 54.0889 109.961 54.3136 112.606 54.2208C114.029 53.7908 114.3 52.9815 113.419 51.793C111.361 51.278 109.283 50.8283 107.186 50.4442C105.378 49.4529 104.565 47.9241 104.747 45.8584C104.738 43.0367 106.093 41.2833 108.812 40.5981Z" fill="#425563"/>
<path opacity="0.93" fill-rule="evenodd" clip-rule="evenodd" d="M126.157 40.598C133.764 39.8063 137.287 43.2233 136.727 50.8487C132.752 50.8487 128.777 50.8487 124.802 50.8487C125.497 53.6701 127.304 54.7939 130.223 54.2206C131.782 53.9914 133.317 53.6766 134.83 53.2765C134.919 54.5481 134.828 55.8068 134.559 57.0531C131.348 58.2769 128.096 58.4118 124.802 57.4577C122.367 56.2891 120.967 54.3558 120.602 51.658C120.108 48.7069 120.559 45.9192 121.957 43.2956C123.096 41.9446 124.497 41.0456 126.157 40.598ZM127.784 44.3746C130.207 44.0924 131.743 45.0814 132.391 47.3419C129.855 47.4315 127.326 47.3414 124.802 47.0721C125.303 45.582 126.297 44.6829 127.784 44.3746Z" fill="#425563"/>
<path opacity="0.902" fill-rule="evenodd" clip-rule="evenodd" d="M144.315 40.598C145.854 40.5533 147.39 40.5983 148.923 40.7329C149.185 41.9201 149.275 43.134 149.194 44.3746C147.655 44.3298 146.12 44.3749 144.586 44.5095C144.243 44.5928 143.927 44.7277 143.638 44.9141C143.502 49.3192 143.457 53.7251 143.502 58.1321C142.147 58.1321 140.792 58.1321 139.437 58.1321C139.347 52.734 139.437 47.3389 139.708 41.9468C141.241 41.3647 142.777 40.915 144.315 40.598Z" fill="#425563"/>
<path opacity="0.915" fill-rule="evenodd" clip-rule="evenodd" d="M151.091 40.5981C152.627 40.5981 154.162 40.5981 155.698 40.5981C157.016 44.2172 158.416 47.8138 159.899 51.3883C161.414 47.9204 162.86 44.4136 164.235 40.8679C165.801 40.5153 167.382 40.5153 168.978 40.8679C166.629 46.5327 164.28 52.1976 161.931 57.8624C160.607 58.2137 159.298 58.2137 158.002 57.8624C155.51 52.1731 153.206 46.4184 151.091 40.5981Z" fill="#425563"/>
<path opacity="0.936" fill-rule="evenodd" clip-rule="evenodd" d="M175.482 40.598C183.28 39.6374 186.803 43.0542 186.051 50.8487C182.076 50.8037 178.101 50.8487 174.127 50.9836C175.066 53.6561 176.964 54.7351 179.818 54.2207C181.205 54.0329 182.56 53.7181 183.883 53.2765C184.236 54.5943 184.236 55.898 183.883 57.188C180.068 58.6187 176.364 58.4388 172.772 56.6485C170.724 54.6755 169.73 52.2477 169.791 49.3651C169.639 45.0169 171.536 42.0946 175.482 40.598ZM177.108 44.3746C179.469 44.0199 181.095 44.919 181.986 47.0722C179.463 47.3414 176.934 47.4315 174.398 47.3419C174.467 46.6632 174.693 46.0336 175.075 45.4536C175.757 45.0479 176.434 44.6881 177.108 44.3746Z" fill="#425563"/>
</svg>
