<svg width="94" height="16" viewBox="0 0 94 16" fill="none" xmlns="http://www.w3.org/2000/svg">
<g clip-path="url(#clip0_53_3705)">
<path d="M67.1402 0.328857H65.6129C64.9062 0.328857 64.3476 0.669365 64.0285 1.26138L58.2571 11.7359C58.1014 11.9874 57.8886 12.1151 57.5922 12.1189C57.2959 12.1112 57.0831 11.9835 56.9273 11.7359L51.156 1.26138C50.8368 0.669365 50.2783 0.328857 49.5716 0.328857H48.0442C47.8923 0.328857 47.3641 0.344335 46.8854 0.83575C46.5587 1.16852 46.4219 1.60576 46.4219 1.98496V15.644C46.4219 15.8413 46.5777 16.0038 46.7752 16.0038H49.9212C50.1149 16.0038 50.2745 15.8452 50.2745 15.644V7.99802C50.2745 7.93998 50.3201 7.88968 50.3809 7.88968C50.4227 7.88968 50.4607 7.91677 50.4759 7.95159L53.599 13.6125C54.0208 14.4135 54.6021 15.021 55.3278 15.4157C56.0421 15.8026 56.8209 16 57.596 16C58.3711 16 59.1462 15.8026 59.8643 15.4157C60.59 15.021 61.1713 14.4135 61.593 13.6125L64.7162 7.95159C64.7314 7.91677 64.7694 7.88968 64.8112 7.88968C64.8682 7.88968 64.9176 7.93611 64.9176 7.99802V15.644C64.9176 15.8413 65.0733 16.0038 65.2709 16.0038H67.5506H68.4168C68.6106 16.0038 68.7702 15.8452 68.7702 15.644V1.98109C68.7702 1.60189 68.6296 1.16465 68.3067 0.83188C67.8203 0.344335 67.2922 0.328857 67.1402 0.328857Z" fill="white"/>
<path d="M42.6104 0.328821H39.4379C39.2441 0.328821 39.0845 0.487466 39.0845 0.688675V10.2809C39.0845 10.7878 38.9174 11.2057 38.5792 11.5578C38.2411 11.91 37.8345 12.0802 37.3444 12.0802H30.0989C29.6201 12.0802 29.2212 11.9177 28.883 11.5888C28.5183 11.2367 28.3321 10.7337 28.3321 10.219V0.684806C28.3321 0.487466 28.1763 0.324951 27.9788 0.324951H24.8328C24.6391 0.324951 24.4795 0.483597 24.4795 0.684806V10.2771C24.4795 11.0664 24.6277 11.821 24.924 12.5136C25.2166 13.2062 25.6193 13.8176 26.1209 14.3283C26.6224 14.8391 27.2227 15.2493 27.9028 15.5472C28.5867 15.8451 29.3238 15.9999 30.0989 15.9999H37.3406C38.1005 15.9999 38.83 15.849 39.5101 15.5472C40.1902 15.2493 40.7905 14.8391 41.3034 14.3283C41.8125 13.8176 42.2229 13.2062 42.5154 12.5136C42.808 11.8171 42.96 11.0664 42.96 10.2771V0.684806C42.96 0.487466 42.8042 0.328821 42.6104 0.328821Z" fill="white"/>
<path d="M21.7935 0.328857H18.2296C18.1042 0.328857 17.9864 0.398507 17.9218 0.51072L11.7515 11.7165C11.592 11.999 11.383 12.1344 11.0828 12.1189C10.7751 12.1112 10.5585 11.9835 10.3989 11.7165L4.22105 0.51072C4.16026 0.398507 4.04248 0.328857 3.9133 0.328857H0.353221C0.0834605 0.328857 -0.0837149 0.622932 0.0454661 0.862836L7.08203 13.6125C7.50377 14.4135 8.08508 15.021 8.81078 15.4157C9.52507 15.8026 10.2812 16 11.0562 16C11.8313 16 12.5874 15.8026 13.3017 15.4157C14.0236 15.021 14.6163 14.4174 15.0571 13.6164L22.1012 0.862836C22.2342 0.622932 22.0632 0.328857 21.7935 0.328857Z" fill="white"/>
<path d="M93.4929 15.466L92.6115 13.8718L86.274 2.38743C85.8523 1.58647 85.2709 0.978969 84.5453 0.58429C83.1129 -0.193461 81.4829 -0.193461 80.0505 0.58429C79.3286 0.978969 78.7359 1.5826 78.2952 2.38356L71.9539 13.8757L71.0724 15.4699C70.9394 15.7098 71.1104 16.0039 71.3802 16.0039H74.9441C75.0694 16.0039 75.1872 15.9342 75.2518 15.822L75.5482 15.2803L77.0034 12.6375H87.5658L89.0324 15.3035L89.3174 15.8181C89.3781 15.9304 89.4959 16 89.6251 16H93.189C93.4549 16 93.6259 15.7059 93.4929 15.466ZM78.6599 9.61936L81.6045 4.26797C81.7641 3.9855 81.9768 3.84233 82.277 3.86168C82.5847 3.86942 82.8013 3.99711 82.9609 4.2641L85.9055 9.61549H78.6599V9.61936Z" fill="white"/>
</g>
<defs>
<clipPath id="clip0_53_3705">
<rect width="93.5385" height="16" fill="white"/>
</clipPath>
</defs>
</svg>
