<svg width="188" height="32" viewBox="0 0 188 32" fill="none" xmlns="http://www.w3.org/2000/svg">
<g clip-path="url(#clip0_53_3524)">
<path d="M134.279 0.657715H131.225C129.811 0.657715 128.694 1.33873 128.056 2.52277L116.513 23.4717C116.202 23.9748 115.776 24.2301 115.183 24.2379C114.591 24.2224 114.165 23.967 113.854 23.4717L102.311 2.52277C101.673 1.33873 100.556 0.657715 99.1422 0.657715H96.0875C95.7835 0.657715 94.7273 0.68867 93.7698 1.6715C93.1163 2.33704 92.8428 3.21152 92.8428 3.96993V31.2879C92.8428 31.6826 93.1543 32.0077 93.5495 32.0077H99.8413C100.229 32.0077 100.548 31.6904 100.548 31.2879V15.996C100.548 15.88 100.639 15.7794 100.761 15.7794C100.844 15.7794 100.92 15.8335 100.951 15.9032L107.197 27.2251C108.041 28.827 109.203 30.042 110.655 30.8314C112.083 31.6052 113.641 31.9999 115.191 31.9999C116.741 31.9999 118.291 31.6052 119.728 30.8314C121.179 30.042 122.342 28.827 123.185 27.2251L129.431 15.9032C129.462 15.8335 129.538 15.7794 129.621 15.7794C129.735 15.7794 129.834 15.8722 129.834 15.996V31.2879C129.834 31.6826 130.146 32.0077 130.541 32.0077H135.1H136.833C137.22 32.0077 137.539 31.6904 137.539 31.2879V3.96219C137.539 3.20379 137.258 2.3293 136.612 1.66376C135.64 0.68867 134.583 0.657715 134.279 0.657715Z" fill="#E50096"/>
<path d="M85.2209 0.657763H78.8758C78.4882 0.657763 78.1691 0.975055 78.1691 1.37747V20.562C78.1691 21.5758 77.8347 22.4116 77.1584 23.1158C76.4821 23.82 75.6691 24.1605 74.6888 24.1605H60.1977C59.2403 24.1605 58.4424 23.8355 57.7661 23.1777C57.0366 22.4735 56.6643 21.4674 56.6643 20.4382V1.36973C56.6643 0.975055 56.3527 0.650024 55.9576 0.650024H49.6657C49.2781 0.650024 48.959 0.967316 48.959 1.36973V20.5543C48.959 22.133 49.2553 23.642 49.8481 25.0273C50.4332 26.4125 51.2386 27.6353 52.2417 28.6568C53.2448 29.6783 54.4454 30.4986 55.8056 31.0945C57.1734 31.6904 58.6476 32 60.1977 32H74.6812C76.201 32 77.66 31.6982 79.0202 31.0945C80.3804 30.4986 81.581 29.6783 82.6068 28.6568C83.6251 27.6353 84.4458 26.4125 85.0309 25.0273C85.616 23.6343 85.92 22.133 85.92 20.5543V1.36973C85.92 0.975055 85.6084 0.657763 85.2209 0.657763Z" fill="#E50096"/>
<path d="M43.5869 0.657715H36.4592C36.2084 0.657715 35.9729 0.797014 35.8437 1.02144L23.5031 23.4331C23.1839 23.998 22.766 24.2688 22.1657 24.2379C21.5502 24.2224 21.117 23.967 20.7979 23.4331L8.44211 1.02144C8.32052 0.797014 8.08496 0.657715 7.8266 0.657715H0.706442C0.166921 0.657715 -0.16743 1.24586 0.0909323 1.72567L14.1641 27.2251C15.0075 28.827 16.1702 30.042 17.6216 30.8314C19.0501 31.6052 20.5623 31.9999 22.1125 31.9999C23.6627 31.9999 25.1748 31.6052 26.6034 30.8314C28.0472 30.042 29.2327 28.8347 30.1141 27.2328L44.2024 1.72567C44.4684 1.24586 44.1265 0.657715 43.5869 0.657715Z" fill="#E50096"/>
<path d="M186.986 30.9319L185.223 27.7435L172.548 4.77474C171.705 3.17281 170.542 1.95782 169.091 1.16846C166.226 -0.387044 162.966 -0.387044 160.101 1.16846C158.657 1.95782 157.472 3.16507 156.59 4.76701L143.908 27.7513L142.145 30.9397C141.879 31.4195 142.221 32.0076 142.76 32.0076H149.888C150.139 32.0076 150.374 31.8683 150.504 31.6439L151.096 30.5605L154.007 25.2749H175.132L178.065 30.6069L178.635 31.6362C178.756 31.8606 178.992 31.9999 179.25 31.9999H186.378C186.91 31.9999 187.252 31.4117 186.986 30.9319ZM157.32 19.2386L163.209 8.53581C163.528 7.97088 163.954 7.68454 164.554 7.72323C165.169 7.73871 165.603 7.99409 165.922 8.52807L171.811 19.2309H157.32V19.2386Z" fill="#E50096"/>
</g>
<defs>
<clipPath id="clip0_53_3524">
<rect width="187.077" height="32" fill="white"/>
</clipPath>
</defs>
</svg>
