<svg width="84" height="30" viewBox="0 0 84 30" fill="none" xmlns="http://www.w3.org/2000/svg">
<g clip-path="url(#clip0_53_2992)">
<path d="M0.308998 2.23802C1.11109 0.496923 3.29576 -0.441329 5.07662 0.232513C5.98282 0.56663 6.6816 1.33021 7.07515 2.20917C9.75275 7.89957 12.424 13.5924 15.1 19.2836C17.9393 15.5963 20.8046 11.9082 24.0974 8.62389C26.8042 5.94695 29.8059 3.48554 33.2896 1.93675C35.9877 0.732486 39.0146 0.186042 41.9415 0.678003C45.8944 1.32701 49.6635 3.5881 51.8348 7.05106C52.3111 7.79381 52.711 8.63831 52.6952 9.54532C52.7157 10.6262 52.1187 11.6478 51.274 12.2743C50.4893 12.8761 49.4995 13.223 48.5136 13.1685C47.9197 13.1333 47.3093 12.9209 46.8984 12.4682C46.6712 12.2142 46.4819 11.9282 46.2682 11.663C45.4929 10.6927 44.6159 9.78649 43.5701 9.11745C42.1607 8.18962 40.4185 7.79221 38.756 8.0494C37.3347 8.26974 36.0003 8.87468 34.7676 9.60701C32.631 10.8858 30.7508 12.5532 28.9754 14.2991C25.0533 18.2404 21.6627 22.6856 18.4386 27.2215C18.0127 27.7999 17.653 28.4441 17.097 28.9089C16.2791 29.6196 15.1994 30.0322 14.1181 29.9769C13.0865 29.9441 12.0944 29.416 11.4532 28.5988C11.0667 28.1349 10.8238 27.574 10.5596 27.0348C7.13825 19.8348 3.77607 12.6069 0.398119 5.38608C-0.0703614 4.41658 -0.157117 3.22514 0.308998 2.23802Z" fill="white"/>
<path d="M58.9827 2.56092C59.6049 0.848676 61.5073 -0.288283 63.2842 0.0642626C64.1864 0.23733 64.972 0.827043 65.4972 1.57941C66.2977 2.74761 67.0951 3.91902 67.8948 5.08803C71.1671 3.41504 74.4954 1.82859 77.964 0.616316C78.8521 0.333479 79.7512 -0.0439047 80.7023 0.035418C81.7347 0.0907035 82.7009 0.684422 83.2774 1.54816C84.0511 2.68031 84.2459 4.23712 83.6528 5.49426C83.2254 6.43091 82.342 7.08712 81.3782 7.36756C78.147 8.301 75.034 9.62144 72.0339 11.1494C75.0056 15.4961 77.9774 19.8429 80.9445 24.1936C81.4571 24.9876 81.7103 25.9803 81.5076 26.9202C81.1109 28.8808 79.0358 30.2942 77.1004 29.924C76.1398 29.7534 75.314 29.11 74.7777 28.2991C71.7152 23.8154 68.6528 19.3309 65.5879 14.8487C60.4528 18.1098 55.6158 21.8283 50.9191 25.7031C49.9041 26.558 48.8512 27.3721 47.7107 28.0467C46.2958 28.8888 44.7453 29.5098 43.1261 29.7926C40.1977 30.2958 37.1131 29.8824 34.43 28.578C31.8274 27.3104 29.6119 25.2392 28.1402 22.7169C27.6505 21.8748 27.4359 20.8356 27.7025 19.8821C28.1734 18.1787 29.9235 17.0137 31.6365 17.0826C32.5388 17.1162 33.4197 17.5906 33.9221 18.3598C34.6856 19.5528 35.6422 20.6465 36.8403 21.4029C38.0548 22.1865 39.506 22.5695 40.9414 22.5222C42.0677 22.4813 43.1608 22.0919 44.1262 21.5142C45.4125 20.7603 46.5088 19.7299 47.6027 18.7211C49.6927 16.7557 51.9539 14.9873 54.2829 13.3272C56.5906 11.691 58.9669 10.1575 61.3913 8.70803C60.8881 7.96688 60.3826 7.22814 59.877 6.4886C59.5624 6.02228 59.2106 5.56878 59.0182 5.03114C58.7082 4.24914 58.6877 3.35014 58.9827 2.56092Z" fill="white"/>
</g>
<defs>
<clipPath id="clip0_53_2992">
<rect width="84" height="30" fill="white"/>
</clipPath>
</defs>
</svg>
