<svg width="370" height="284" viewBox="0 0 370 284" fill="none" xmlns="http://www.w3.org/2000/svg">
<mask id="mask0_53_2814" style="mask-type:alpha" maskUnits="userSpaceOnUse" x="0" y="0" width="370" height="284">
<rect width="370" height="284" fill="#F5F5F5"/>
</mask>
<g mask="url(#mask0_53_2814)">
<g clip-path="url(#clip0_53_2814)">
<path d="M451 -39H-49V461H451V-39Z" fill="#F5F5F5"/>
<path d="M427 -15H-25V437H427V-15Z" fill="#F5F5F5"/>
<mask id="mask1_53_2814" style="mask-type:luminance" maskUnits="userSpaceOnUse" x="-25" y="-15" width="452" height="452">
<path d="M427 -15H-25V437H427V-15Z" fill="white"/>
</mask>
<g mask="url(#mask1_53_2814)">
<path d="M282.429 -6.004V37.13C282.429 44.499 281.035 51.724 278.366 58.444L251.75 5.308L282.429 -6.004Z" fill="#D9D9D9"/>
<path d="M199.227 251.405C188.708 255.757 179.271 262.441 171.685 271L158.629 285.715L159.182 283.371L112.249 272.263L100.708 229.394L147.076 215.317L146.379 213.021L199.227 251.405Z" fill="#D9D9D9"/>
<path d="M194.526 100.749L163.126 140.24H163.113L148.459 158.681L120.376 135.119L122.708 135.756L137.988 79.218L194.526 100.749Z" fill="#D9D9D9"/>
<path d="M44.555 40.833L42.331 72.197L8.57402 67.124L6.37402 16.489L44.555 40.833Z" fill="#D9D9D9"/>
<path d="M53.9681 188.555L56.1681 189.529H39.0371C35.4781 182.821 25.6451 162.095 23.5771 134.638L79.5621 130.382L53.9681 188.555Z" fill="#D9D9D9"/>
<path d="M361.592 222.745L356.844 267.49L261.403 250.479L287.671 222.745H361.592Z" fill="#D9D9D9"/>
<path d="M405.928 169.188L367.098 181.907L366.713 182.04L173.524 140.697L190.992 118.721L190.715 121.102L311.762 135.143L319.011 118.361L405.928 169.188Z" fill="#D9D9D9"/>
<path d="M183.8 -25.804H178.991V6.24001H183.8V-25.804ZM247.208 6.97901L274.984 62.413L279.283 60.259L251.748 5.30601L283.261 -6.30899L281.598 -10.821L209.454 15.769L211.117 20.281L247.208 6.97901ZM170.852 84.932H175.661V44.607H218.356V39.798H136.385V-25.804H131.576V44.607H170.851V84.932H170.852ZM357.497 16.239L354.388 95.553L359.193 95.741L361.438 38.473C367.856 35.871 397.164 25.966 418.585 51.722L422.282 48.647C400.65 22.635 371.675 29.727 361.642 33.269L362.411 13.648L371.436 -25.261L366.752 -26.348L358.031 11.249L290.407 23.783L291.283 28.511L357.497 16.239ZM367.823 295.536L298.018 332.6L273.7 296.321L269.706 298.998L320.759 375.161L324.753 372.484L300.71 336.615L370.079 299.783L367.823 295.536ZM390.584 187.056L385.915 188.204L400.642 248.088L362.561 268.944L364.871 273.161L401.831 252.92L418.099 319.073L422.769 317.925L405.907 249.36L427 176.365L422.38 175.03L403.604 240.001L390.584 187.056ZM158.074 288.046L159.181 283.366L112.245 272.257L100.709 229.39L147.075 215.322L145.679 210.72L99.4589 224.744L92.0789 197.321L87.4359 198.57L106.927 270.999L57.1279 259.212L-0.104103 222.07V197.945H-4.9131V224.681L53.0409 262.291L23.0249 321.011L27.3069 323.199L40.7319 296.938L108.968 342.158L111.625 338.15L42.9349 292.629L57.4519 264.23L158.074 288.046ZM323.946 94.848L308.765 129.951L191.269 116.324L190.715 121.101L311.76 135.139L319.016 118.363L410.292 171.809L412.72 167.658L320.939 113.917L328.36 96.758L323.946 94.848ZM37.6239 344.202L33.8829 341.18L1.8399 380.864L-16.9181 351.947V308.94H-21.7271V353.37L-0.7771 385.667V447.805H4.0319V385.805L17.1379 369.573L60.1029 397.267L62.7079 393.226L20.1759 365.81L37.6239 344.202ZM235.974 348.611L172.141 361.39L157.589 378.993C153.841 383.526 149.248 387.088 144.18 389.602L146.438 327.846L141.633 327.67L139.294 391.639C131.481 394.331 122.881 394.688 114.599 392.314L80.8449 382.643L79.5209 387.266L99.5379 393.001L91.7679 447.465L96.5289 448.144L104.205 394.339L113.275 396.938C117.454 398.136 121.704 398.715 125.917 398.715C139.386 398.715 152.438 392.772 161.296 382.057L173.192 367.666L200.999 411.602L205.062 409.031L177.353 365.25L236.919 353.326L235.974 348.611ZM361.847 222.749V217.94H287.601L221.616 154.906L166.91 218.78L170.562 221.908L221.966 161.89L250.655 189.296L189.56 234.58L192.423 238.442L221.025 217.243L258.653 253.389L287.672 222.749H361.847ZM258.492 246.566L224.944 214.339L254.183 192.668L283.246 220.431L258.492 246.566ZM17.1199 135.433L-4.9511 130.549L-14.6411 71.407L-19.3861 72.184L-10.0071 129.43L-35.2901 123.835L-36.3291 128.53L16.0809 140.129L17.1199 135.433ZM398.225 418.13H362.422V385.844H357.613V418.13H313.744V385.844H308.935V419.189L265.644 445.754L268.159 449.854L312.018 422.939H357.613V447.804H362.422V422.939H400.673L426.635 387.259L422.747 384.43L398.225 418.13ZM42.3209 72.383L47.1179 72.722L52.2329 0.340008L47.4359 0.00100708L44.9359 35.375L7.5319 11.521L4.9459 15.575L44.5499 40.834L42.3209 72.383ZM66.5259 119.236L62.3709 83.079L57.5939 83.628L61.7489 119.785L66.5259 119.236ZM72.6719 157.99L122.595 191.525L125.276 187.533L74.6389 153.519L84.4809 131.15L80.0799 129.213L53.9689 188.561L58.3699 190.498L72.6719 157.99ZM138.042 78.988L133.4 77.734L118.068 134.498L122.71 135.752L138.042 78.988Z" fill="white"/>
<path d="M267.994 450.542L264.956 445.59L308.434 418.909V385.344H314.243V417.63H357.112V385.344H362.921V417.63H397.97L422.636 383.731L427.333 387.148L400.928 423.439H362.922V448.304H357.113V423.44H312.159L267.994 450.542ZM266.331 445.92L268.323 449.167L311.877 422.44H358.113V447.305H361.922V422.44H400.419L425.937 387.37L422.857 385.129L398.479 418.632H361.921V386.346H358.112V418.632H313.243V386.346H309.434V419.471L309.196 419.617L266.331 445.92ZM96.9532 448.709L91.2032 447.89L98.9812 393.363L78.9022 387.61L80.5012 382.025L114.735 391.835C122.645 394.103 130.961 393.909 138.805 391.278L141.15 327.154L146.955 327.366L144.71 388.772C149.547 386.249 153.747 382.856 157.203 378.675L171.868 360.935L172.042 360.9L236.366 348.023L237.506 353.719L237.016 353.817L178.164 365.598L205.751 409.187L200.842 412.291L173.137 368.516L161.68 382.375C152.833 393.077 139.798 399.215 125.916 399.215C121.597 399.215 117.298 398.611 113.137 397.418L104.619 394.978L96.9532 448.709ZM92.3342 447.04L96.1042 447.578L103.79 393.7L113.412 396.457C117.483 397.623 121.69 398.215 125.916 398.215C139.499 398.215 152.253 392.209 160.91 381.738L173.245 366.816L201.153 410.912L204.371 408.876L176.54 364.902L236.329 352.933L235.581 349.2L172.412 361.845L157.973 379.312C154.249 383.817 149.683 387.43 144.401 390.051L143.648 390.424L145.918 328.328L142.112 328.188L139.779 392.001L139.455 392.112C131.32 394.913 122.677 395.15 114.459 392.795L81.1862 383.261L80.1372 386.924L100.092 392.642L92.3342 447.04ZM4.5322 448.305H-1.27681V385.815L-22.2268 353.517V308.44H-16.4178V351.799L1.88519 380.013L33.8082 340.477L38.3272 344.126L20.9152 365.691L63.4002 393.077L60.2532 397.959L17.2462 370.237L4.5332 385.981L4.5322 448.305ZM-0.275806 447.305H3.5332V385.628L17.0322 368.909L17.4102 369.153L59.9542 396.576L62.0172 393.376L19.4372 365.93L36.9202 344.277L33.9572 341.883L1.7962 381.714L-17.4178 352.095V309.44H-21.2268V353.221L-0.276806 385.518L-0.275806 447.305ZM320.622 375.854L320.343 375.439L269.011 298.861L273.836 295.628L298.181 331.946L368.029 294.86L370.753 299.99L301.432 336.797L325.446 372.621L320.622 375.854ZM270.4 299.135L320.897 374.468L324.06 372.348L299.986 336.434L369.402 299.577L367.616 296.213L297.854 333.254L273.563 297.016L270.4 299.135ZM109.108 342.851L40.9222 297.663L27.5252 323.872L22.3532 321.228L52.3912 262.464L-5.4118 224.951V197.443H0.397194V221.797L57.3292 258.743L106.228 270.317L86.8242 198.215L92.4332 196.706L99.8082 224.114L146.013 210.094L147.699 215.653L101.319 229.726L112.652 271.837L159.785 282.993L158.448 288.645L57.7202 264.804L43.5852 292.456L112.32 338.006L109.108 342.851ZM40.5412 296.212L41.0082 296.521L108.827 341.464L110.932 338.29L42.2862 292.799L57.1852 263.653L57.5672 263.744L157.703 287.445L158.58 283.738L111.84 272.675L100.1 229.052L146.451 214.989L145.345 211.344L99.1102 225.372L91.7262 197.934L88.0482 198.924L107.628 271.679L56.8562 259.632L-0.603806 222.342V198.446H-4.4128V224.411L53.6912 262.119L23.6982 320.795L27.0892 322.528L40.5412 296.212ZM417.731 319.677L401.499 253.671L364.671 273.84L361.881 268.745L400.064 247.834L385.31 187.838L390.95 186.451L403.643 238.066L422.039 174.411L427.619 176.024L406.423 249.371L423.372 318.291L417.731 319.677ZM402.16 252.169L418.464 318.468L422.162 317.558L405.388 249.349L405.425 249.221L426.381 176.706L422.722 175.649L403.565 241.937L390.217 187.661L386.519 188.571L401.218 248.342L363.238 269.142L365.067 272.483L402.16 252.169ZM258.669 254.099L220.983 217.897L192.319 239.142L188.861 234.477L249.88 189.249L222.002 162.618L170.616 222.615L166.204 218.837L221.579 154.182L221.96 154.547L287.8 217.442H362.346V223.251H287.886L258.669 254.099ZM221.066 216.59L258.635 252.681L287.455 222.249H361.346V218.44H287.4L287.255 218.301L221.651 155.633L167.614 218.726L170.506 221.204L221.929 161.165L251.428 189.345L190.259 234.683L192.527 237.743L221.066 216.59ZM258.508 247.275L224.17 214.289L254.223 192.015L283.951 220.412L258.508 247.275ZM225.716 214.389L258.475 245.858L282.539 220.448L254.142 193.32L225.716 214.389ZM122.731 192.219L72.8892 158.738L58.6262 191.157L53.3092 188.817L79.8232 128.553L85.1402 130.893L75.2652 153.337L125.97 187.397L122.731 192.219ZM72.4552 157.242L122.459 190.831L124.583 187.669L74.0142 153.7L83.8232 131.406L80.3372 129.872L54.6292 188.305L58.1152 189.839L72.4552 157.242ZM410.47 172.493L410.038 172.24L319.249 119.079L312.07 135.678L311.701 135.635L190.16 121.54L190.829 115.77L308.453 129.411L323.686 94.19L329.016 96.497L321.572 113.708L413.403 167.478L410.47 172.493ZM318.78 117.645L410.112 171.124L412.035 167.836L320.303 114.124L327.702 97.018L324.206 95.506L309.076 130.491L191.707 116.879L191.268 120.663L311.447 134.6L318.78 117.645ZM16.4612 140.725L-36.9248 128.91L-35.6708 123.239L-10.6198 128.782L-19.9608 71.772L-14.2288 70.833L-4.51281 130.134L17.7152 135.053L16.4612 140.725ZM-35.7328 128.149L15.7012 139.532L16.5242 135.814L-5.38881 130.964L-5.44381 130.63L-15.0528 71.982L-18.8108 72.598L-9.39281 130.079L-34.9088 124.432L-35.7328 128.149ZM123.063 136.365L117.455 134.851L133.048 77.121L138.655 78.636L123.063 136.365ZM118.682 134.146L122.358 135.139L137.429 79.341L133.753 78.348L118.682 134.146ZM61.3092 120.339L57.0392 83.189L62.8092 82.525L67.0792 119.675L61.3092 120.339ZM58.1472 84.068L62.1882 119.232L65.9722 118.797L61.9312 83.633L58.1472 84.068ZM359.672 96.26L353.868 96.033L356.972 16.844L290.882 29.093L289.824 23.382L357.618 10.817L366.378 -26.947L372.036 -25.634L362.897 13.762L362.169 32.558C373.831 28.593 401.552 22.94 422.665 48.328L422.985 48.713L418.52 52.427L418.2 52.043C397.215 26.81 368.294 36.299 361.924 38.817L359.672 96.26ZM354.906 95.073L358.712 95.222L360.95 38.13L361.249 38.009C367.039 35.663 396.895 25.316 418.647 51.019L421.575 48.583C400.472 23.607 372.775 29.868 361.807 33.74L361.112 33.985L361.91 13.628L370.835 -24.887L367.125 -25.748L358.443 11.68L290.988 24.182L291.682 27.927L358.019 15.633L354.906 95.073ZM176.16 85.432H170.351V45.107H131.076V-26.304H136.885V39.298H218.856V45.107H176.16V85.432ZM171.352 84.432H175.161V44.107H217.856V40.298H135.885V-25.304H132.076V44.107H171.351V84.432H171.352ZM47.5812 73.257L41.7862 72.847L44.0302 41.095L4.2562 15.728L7.3802 10.831L44.4972 34.503L46.9732 -0.531994L52.7672 -0.121994L52.7312 0.377007L47.5812 73.257ZM42.8552 71.92L46.6542 72.189L51.6992 0.805008L47.9002 0.537006L45.3752 36.25L7.6852 12.211L5.6372 15.422L45.0702 40.572L42.8552 71.92ZM274.76 63.084L246.961 7.60301L210.82 20.923L208.812 15.473L281.895 -11.463L283.904 -6.01299L252.446 5.58101L279.954 60.481L274.76 63.084ZM247.454 6.35501L275.206 61.742L278.611 60.036L251.051 5.03001L282.619 -6.60499L281.302 -10.178L210.096 16.066L211.413 19.639L247.454 6.35501ZM184.3 6.74001H178.491V-26.304H184.3V6.74001ZM179.492 5.74001H183.301V-25.304H179.492V5.74001Z" fill="white"/>
<path d="M439.681 170.789L435.94 159.365L367.096 181.912L366.711 182.037L173.52 140.692L203.037 103.562H224.413C242.505 103.562 259.869 96.103 272.371 83.063L358.316 103.421L439.906 45.137L435.714 39.268L356.79 95.647L277.626 76.895C286.187 65.451 290.845 51.55 290.845 37.13V-25.804H282.43V37.13C282.43 51.561 277.092 65.398 267.4 76.09C257.193 87.341 242.944 94.126 227.875 95.033V56.016C227.875 28.5 205.495 6.11399 177.985 6.11399H73.7948L21.0158 -29.298L16.3278 -22.309L30.4278 -12.848L-1.13617 9.98L1.30383 66.036L-35.1852 60.558L-36.4342 68.88L24.0268 77.956C18.1788 94.357 15.4908 111.516 16.0538 129.042C16.9578 157.357 25.9438 179.382 30.9218 189.529H-35.8102V197.944H125.622L199.226 251.408C188.702 255.753 179.274 262.435 171.68 270.999L131.66 316.093L131.136 316.683L128.45 319.71L90.6828 362.254L-32.6692 286.662L-38.9512 296.911L82.5788 371.388L16.8888 445.411L22.2838 450.199L131.148 328.116H236.447V395.506L130.853 442.31L135.724 453.301L287.91 385.845H437.81V373.823H406.662V325.712H437.81V318.499H387.432L363.715 271.054L372.011 192.948L439.681 170.789ZM177.984 13.327C201.516 13.327 220.661 32.477 220.661 56.016V95.146H200.09L111.837 61.551C117.77 48.61 113.604 32.826 101.431 24.655L84.5458 13.326L177.984 13.327ZM8.57083 67.127L6.23883 13.548L36.8128 -8.565L96.7398 31.643C106.373 38.108 109.001 51.236 102.596 60.907L97.8008 68.154C93.2738 74.988 85.1148 78.615 77.0118 77.4L8.57083 67.127ZM31.2918 79.047L75.7638 85.723C77.2188 85.942 78.6718 86.048 80.1178 86.048C89.9318 86.047 99.3048 81.125 104.819 72.799L108.097 67.845L194.524 100.745L163.126 140.241H163.114L148.461 158.675L98.6438 116.881L23.2128 122.628C23.4198 107.688 26.1258 93.068 31.2918 79.047ZM123.936 189.529H39.0428C35.4818 182.821 25.6428 162.09 23.5828 134.64L94.6708 129.24L140.978 168.089L123.936 189.529ZM141.304 316.094L177.076 275.786C185.34 266.466 196.003 259.601 207.911 255.934C218.207 252.761 229.257 252.082 239.864 253.97L295.038 263.804L243.329 316.094H141.304ZM382.973 325.711H399.448V373.822H285.364L248.468 390.176V321.155L303.663 265.34L357.601 274.954L382.973 325.711ZM356.839 267.491L241.129 246.869C230.002 244.884 218.443 245.49 207.565 248.549L131.619 193.386L168.496 146.994L365.167 189.084L356.839 267.491Z" fill="white"/>
<path d="M135.214 454.619L129.533 441.8L235.446 394.855V329.116H131.596L22.3658 451.608L15.4768 445.495L81.0388 371.616L-40.3262 297.241L-32.9992 285.287L90.4918 360.965L170.933 270.335C178.161 262.184 187.218 255.588 197.212 251.181L125.298 198.945H-36.8102V188.53H29.3288C24.0678 177.45 15.9178 156.132 15.0538 129.075C14.5018 111.869 17.0678 94.95 22.6818 78.766L-37.5722 69.721L-36.0262 59.421L0.251827 64.867L-2.15917 9.485L28.6798 -12.818L14.9418 -22.036L20.7428 -30.686L74.0998 5.11399H177.984C206.045 5.11399 228.874 27.948 228.874 56.016V93.961C243.249 92.818 256.97 86.098 266.658 75.419C276.183 64.911 281.429 51.312 281.429 37.13V-26.804H291.844V37.13C291.844 51.296 287.52 64.795 279.322 76.269L356.578 94.57L435.946 37.874L441.301 45.37L358.527 104.499L272.694 84.167C260.045 97.135 242.481 104.561 224.412 104.561H203.519L175.307 140.051L366.659 181.002L366.788 180.96L436.58 158.103L440.944 171.428L372.939 193.696L364.742 270.867L388.052 317.498H438.812V326.711H407.664V372.822H438.812V386.844H288.121L135.214 454.619ZM132.172 442.817L136.233 451.98L287.698 384.844H436.81V374.822H405.662V324.711H436.81V319.498H386.814L362.69 271.238L371.085 192.197L438.419 170.149L435.3 160.626L366.763 183.07L171.733 141.331L202.554 102.56H224.412C242.129 102.56 259.346 95.201 271.649 82.37L272.045 81.957L358.105 102.343L438.512 44.904L435.482 40.663L357.002 96.725L275.913 77.517L276.826 76.296C285.343 64.911 289.845 51.368 289.845 37.13V-24.804H283.43V37.13C283.43 51.81 278 65.885 268.141 76.762C257.866 88.089 243.212 95.112 227.935 96.032L226.875 96.096V56.016C226.875 29.051 204.943 7.11399 177.985 7.11399H73.4908L21.2888 -27.911L17.7148 -22.583L32.1768 -12.879L-0.113171 10.475L2.35583 67.205L-34.3452 61.695L-35.2982 68.04L25.3758 77.147L24.9678 78.292C19.1578 94.585 16.4948 111.649 17.0518 129.01C17.9428 156.916 26.6858 178.629 31.8188 189.088L32.5258 190.528H-34.8102V196.943H125.946L126.209 197.134L201.26 251.649L199.607 252.331C189.245 256.61 179.847 263.294 172.427 271.661L90.8738 363.544L-32.3392 288.037L-37.5762 296.581L84.1188 371.159L18.3008 445.327L22.2008 448.788L130.7 327.115H237.447V396.155L132.172 442.817ZM247.468 391.714V320.744L303.32 264.264L358.27 274.058L383.591 324.71H400.448V374.821H285.576L247.468 391.714ZM249.468 321.566V388.639L285.153 372.822H398.449V326.711H382.356L356.932 275.852L304.005 266.417L249.468 321.566ZM243.746 317.094H139.079L176.328 275.122C184.714 265.666 195.533 258.7 207.617 254.977C218.062 251.757 229.273 251.067 240.04 252.985L297.089 263.153L243.746 317.094ZM143.528 315.094H242.911L292.988 264.454L239.688 254.954C229.233 253.094 218.348 253.763 208.205 256.889C196.472 260.502 185.966 267.267 177.824 276.449L143.528 315.094ZM357.72 268.664L240.954 247.853C230.054 245.91 218.603 246.482 207.837 249.512L207.37 249.643L206.978 249.359L130.187 193.581L168.1 145.886L168.707 146.015L366.257 188.293L357.72 268.664ZM228.094 244.725C232.534 244.725 236.962 245.11 241.305 245.885L355.958 266.319L364.078 189.873L168.894 148.102L133.052 193.192L207.762 247.458C214.385 245.64 221.253 244.725 228.094 244.725ZM124.418 190.529H38.4408L38.1588 189.998C34.1578 182.46 24.6318 161.985 22.5858 134.715L22.5108 133.719L95.0008 128.213L142.366 167.95L124.418 190.529ZM39.6458 188.529H123.453L139.589 168.23L94.3398 130.269L24.6588 135.562C26.7798 161.342 35.6088 180.804 39.6458 188.529ZM148.605 160.102L98.3138 117.91L22.1988 123.709L22.2138 122.615C22.4218 107.568 25.1618 92.793 30.3548 78.701L30.6368 77.937L75.9128 84.733C77.2958 84.941 78.7108 85.047 80.1188 85.047C89.7558 85.047 98.6788 80.261 103.987 72.246L107.706 66.625L196.16 100.296L148.605 160.102ZM98.9748 115.854L148.317 157.25L192.89 101.194L108.489 69.065L105.654 73.351C99.9738 81.927 90.4278 87.047 80.1178 87.048C78.6108 87.048 77.0958 86.935 75.6148 86.712L31.9518 80.158C27.1418 93.463 24.5468 107.379 24.2328 121.549L98.9748 115.854ZM221.661 96.146H199.905L110.482 62.106L110.927 61.135C116.703 48.536 112.381 33.21 100.873 25.486L81.2598 12.327H177.984C202.067 12.327 221.661 31.926 221.661 56.016V96.146ZM200.274 94.146H219.662V56.016C219.662 33.028 200.966 14.327 177.985 14.327H87.8318L101.989 23.826C114.006 31.892 118.7 47.704 113.175 60.991L200.274 94.146ZM80.1218 78.633C79.0398 78.633 77.9518 78.553 76.8638 78.39L7.60683 67.994L5.21583 13.054L36.7908 -9.783L97.2968 30.814C107.386 37.585 110.137 51.332 103.43 61.461L98.6348 68.707C94.5038 74.944 87.4788 78.633 80.1218 78.633ZM9.53483 66.26L77.1618 76.412C84.8828 77.567 92.6568 74.112 96.9688 67.602L101.763 60.356C107.865 51.141 105.362 38.633 96.1828 32.474L36.8338 -7.346L7.26183 14.042L9.53483 66.26Z" fill="white"/>
<path d="M70.2328 44.3529L56.0068 42.9347L53.8944 64.1254L68.1203 65.5435L70.2328 44.3529Z" fill="white"/>
<path d="M74.5635 22.5852L61.5986 15.0997L58.4796 20.5018L71.4445 27.9873L74.5635 22.5852Z" fill="white"/>
<path d="M88.3998 38.9842L78.3135 37.9787L76.4234 56.9383L86.5098 57.9438L88.3998 38.9842Z" fill="white"/>
<path d="M74.8889 91.5584L68.6797 92.4287L70.8422 107.858L77.0514 106.987L74.8889 91.5584Z" fill="white"/>
<path d="M121.598 100.664H103.358V86.794H125.034L121.598 100.664Z" fill="white"/>
<path d="M118.067 113.261H103.358V105.436H119.53L118.067 113.261Z" fill="white"/>
<path d="M95.8952 91.11H83.4521V106.743H95.8952V91.11Z" fill="white"/>
<path d="M162.764 51.213H150.042V67.846H162.764V51.213Z" fill="white"/>
<path d="M206.986 50.203H184.168V56.059H206.986V50.203Z" fill="white"/>
<path d="M213.044 62.413H198.909V74.031H213.044V62.413Z" fill="white"/>
<path d="M196.486 78.675H186.591V84.931H196.486V78.675Z" fill="white"/>
<path d="M156.403 19.787H146.93V34.781H156.403V19.787Z" fill="white"/>
<path d="M194.523 22.541H165.441V32.027H194.523V22.541Z" fill="white"/>
<path d="M241.277 16.0151L235.039 18.8806L244.555 39.5962L250.793 36.7308L241.277 16.0151Z" fill="white"/>
<path d="M252.345 54.237H235.209V74.031H252.345V54.237Z" fill="white"/>
<path d="M265.349 54.237H258.77V62.413H265.349V54.237Z" fill="white"/>
<path d="M321.366 31.089H301.352V42.553H321.366V31.089Z" fill="white"/>
<path d="M338.076 31.089H327.195V56.932H338.076V31.089Z" fill="white"/>
<path d="M323.698 64.134H300.46V75.004H323.698V64.134Z" fill="white"/>
<path d="M347.209 70.729H341.768V83.359H347.209V70.729Z" fill="white"/>
<path d="M375.967 63.345H368.972V72.672H375.967V63.345Z" fill="white"/>
<path d="M354.009 108.813H337.104V119.111H354.009V108.813Z" fill="white"/>
<path d="M385.876 128.827H368.972V106.093L385.876 94.848V128.827Z" fill="white"/>
<path d="M297.662 100.264H279.83V110.083H297.662V100.264Z" fill="white"/>
<path d="M169.713 184.03H150.762V192.667H169.713V184.03Z" fill="white"/>
<path d="M185.054 159.385H177.113V172.118H185.054V159.385Z" fill="white"/>
<path d="M199.311 162.733H193.355V169.772H199.311V162.733Z" fill="white"/>
<path d="M194.665 211.92L185.644 218.841L189.708 224.139L198.729 217.218L194.665 211.92Z" fill="white"/>
<path d="M216.1 189.783L203.786 199.23L210.319 207.746L222.634 198.298L216.1 189.783Z" fill="white"/>
<path d="M79.464 216.681H62.708V235.072H79.464V216.681Z" fill="white"/>
<path d="M93.1175 244.268H84.4795V258.758H93.1175V244.268Z" fill="white"/>
<path d="M48.2548 207.242H13.4229V216.681H48.2548V207.242Z" fill="white"/>
<path d="M123.68 285.914L104.181 281.858V296.989H123.68V285.914Z" fill="white"/>
<path d="M12.1265 299.194L-10.6875 287.344V260.816H12.1265V299.194Z" fill="white"/>
<path d="M33.1729 279.032H17.9629V251.513L33.1729 260.816V279.032Z" fill="white"/>
<path d="M7.5285 244.268L-10.6875 232.519V254.803H7.5285V244.268Z" fill="white"/>
<path d="M230.758 269.739H205.004V289.089H230.758V269.739Z" fill="white"/>
<path d="M259.36 287.624L241.475 304.645V269.739H259.36V287.624Z" fill="white"/>
<path d="M328.445 190.932L297.418 185.339L294.831 199.689L325.858 205.282L328.445 190.932Z" fill="white"/>
<path d="M344.889 294.533H329.923V278.315L344.889 280.478V294.533Z" fill="white"/>
</g>
<path d="M299.547 52.296C293.355 46.104 283.317 46.104 277.125 52.296C270.933 58.488 270.933 68.526 277.125 74.718L288.336 85.929L299.547 74.718C305.739 68.527 305.739 58.488 299.547 52.296Z" fill="#93D301"/>
<path d="M288.336 75.072C294.724 75.072 299.901 69.8942 299.901 63.507C299.901 57.1198 294.724 51.942 288.336 51.942C281.949 51.942 276.771 57.1198 276.771 63.507C276.771 69.8942 281.949 75.072 288.336 75.072Z" fill="white"/>
<path d="M212.211 22.3C206.019 16.108 195.981 16.108 189.789 22.3C183.597 28.492 183.597 38.53 189.789 44.722L201 55.934L212.211 44.723C218.403 38.531 218.403 28.492 212.211 22.3Z" fill="#93D301"/>
<path d="M201 45.076C207.387 45.076 212.565 39.8982 212.565 33.511C212.565 27.1238 207.387 21.946 201 21.946C194.612 21.946 189.435 27.1238 189.435 33.511C189.435 39.8982 194.612 45.076 201 45.076Z" fill="white"/>
<path d="M41.2896 190.425C35.0976 184.233 25.0596 184.233 18.8676 190.425C12.6756 196.617 12.6756 206.655 18.8676 212.847L30.0786 224.058L41.2896 212.847C47.4816 206.656 47.4816 196.617 41.2896 190.425Z" fill="#93D301"/>
<path d="M30.0787 213.201C36.4658 213.201 41.6437 208.023 41.6437 201.636C41.6437 195.249 36.4658 190.071 30.0787 190.071C23.6915 190.071 18.5137 195.249 18.5137 201.636C18.5137 208.023 23.6915 213.201 30.0787 213.201Z" fill="white"/>
<path d="M87.2154 228.702C81.0234 222.51 70.9854 222.51 64.7934 228.702C58.6014 234.894 58.6014 244.932 64.7934 251.124L76.0044 262.335L87.2154 251.124C93.4074 244.933 93.4074 234.894 87.2154 228.702Z" fill="#93D301"/>
<path d="M76.0044 251.479C82.3916 251.479 87.5695 246.301 87.5695 239.914C87.5695 233.527 82.3916 228.349 76.0044 228.349C69.6173 228.349 64.4395 233.527 64.4395 239.914C64.4395 246.301 69.6173 251.479 76.0044 251.479Z" fill="white"/>
<path d="M41.2896 60.577C35.0976 54.385 25.0596 54.385 18.8676 60.577C12.6756 66.769 12.6756 76.807 18.8676 82.999L30.0786 94.21L41.2896 83C47.4816 76.808 47.4816 66.769 41.2896 60.577Z" fill="#93D301"/>
<path d="M30.0787 83.354C36.4658 83.354 41.6437 78.1762 41.6437 71.789C41.6437 65.4018 36.4658 60.224 30.0787 60.224C23.6915 60.224 18.5137 65.4018 18.5137 71.789C18.5137 78.1762 23.6915 83.354 30.0787 83.354Z" fill="white"/>
<path d="M315.402 171.287C309.21 165.095 299.172 165.095 292.98 171.287C286.788 177.479 286.788 187.517 292.98 193.709L304.191 204.92L315.402 193.709C321.593 187.517 321.593 177.479 315.402 171.287Z" fill="#93D301"/>
<path d="M304.191 194.063C310.578 194.063 315.756 188.885 315.756 182.498C315.756 176.111 310.578 170.933 304.191 170.933C297.804 170.933 292.626 176.111 292.626 182.498C292.626 188.885 297.804 194.063 304.191 194.063Z" fill="white"/>
<path d="M184.791 133.01C178.599 126.818 168.561 126.818 162.369 133.01C156.177 139.202 156.177 149.24 162.369 155.432L173.58 166.643L184.791 155.432C190.983 149.24 190.983 139.202 184.791 133.01Z" fill="#93D301"/>
<path d="M173.58 155.786C179.967 155.786 185.145 150.608 185.145 144.221C185.145 137.834 179.967 132.656 173.58 132.656C167.192 132.656 162.015 137.834 162.015 144.221C162.015 150.608 167.192 155.786 173.58 155.786Z" fill="white"/>
<path d="M220.138 272.71C213.946 266.518 203.908 266.518 197.716 272.71C191.524 278.902 191.524 288.94 197.716 295.132L208.927 306.343L220.138 295.132C226.33 288.94 226.33 278.901 220.138 272.71Z" fill="#93D301"/>
<path d="M208.927 295.486C215.314 295.486 220.492 290.308 220.492 283.921C220.492 277.534 215.314 272.356 208.927 272.356C202.54 272.356 197.362 277.534 197.362 283.921C197.362 290.308 202.54 295.486 208.927 295.486Z" fill="white"/>
<path d="M369.327 85.606C363.73 80.009 354.655 80.009 349.057 85.606C343.46 91.203 343.46 100.278 349.057 105.876L359.192 116.011L369.327 105.876C374.924 100.279 374.924 91.204 369.327 85.606Z" fill="#93D301"/>
<path d="M366.586 103.134C362.503 107.217 355.884 107.217 351.801 103.134C347.718 99.051 347.718 92.432 351.801 88.349C355.884 84.266 362.503 84.266 366.586 88.349C370.668 92.431 370.668 99.051 366.586 103.134Z" fill="white"/>
</g>
</g>
<defs>
<clipPath id="clip0_53_2814">
<rect width="500" height="500" fill="white" transform="translate(-49 -39)"/>
</clipPath>
</defs>
</svg>
