<svg width="370" height="284" viewBox="0 0 370 284" fill="none" xmlns="http://www.w3.org/2000/svg">
<mask id="mask0_53_2636" style="mask-type:alpha" maskUnits="userSpaceOnUse" x="0" y="0" width="370" height="284">
<rect width="370" height="284" fill="#F5F5F5"/>
<rect width="370" height="284" fill="#F5F5F5"/>
</mask>
<g mask="url(#mask0_53_2636)">
<g clip-path="url(#clip0_53_2636)">
<path d="M-65 -48H435V452H-65V-48Z" fill="#F5F5F5"/>
<path d="M-41 -24H411V428H-41V-24Z" fill="#F5F5F5"/>
<mask id="mask1_53_2636" style="mask-type:luminance" maskUnits="userSpaceOnUse" x="-41" y="-24" width="452" height="452">
<path d="M-41 -24H411V428H-41V-24Z" fill="white"/>
</mask>
<g mask="url(#mask1_53_2636)">
<path d="M103.571 -15.004V28.13C103.571 35.499 104.965 42.724 107.634 49.444L134.25 -3.692L103.571 -15.004Z" fill="#D9D9D9"/>
<path d="M186.773 242.405C197.292 246.757 206.729 253.441 214.315 262L227.371 276.715L226.818 274.371L273.751 263.263L285.292 220.394L238.924 206.317L239.621 204.021L186.773 242.405Z" fill="#D9D9D9"/>
<path d="M191.474 91.749L222.874 131.24H222.887L237.541 149.681L265.624 126.119L263.292 126.756L248.012 70.218L191.474 91.749Z" fill="#D9D9D9"/>
<path d="M341.445 31.833L343.669 63.197L377.426 58.124L379.626 7.48901L341.445 31.833Z" fill="#D9D9D9"/>
<path d="M332.032 179.555L329.832 180.529H346.963C350.522 173.821 360.355 153.095 362.423 125.638L306.438 121.382L332.032 179.555Z" fill="#D9D9D9"/>
<path d="M24.4077 213.745L29.1557 258.49L124.597 241.479L98.3287 213.745H24.4077Z" fill="#D9D9D9"/>
<path d="M-19.9284 160.188L18.9016 172.907L19.2866 173.04L212.476 131.697L195.008 109.721L195.285 112.102L74.2376 126.143L66.9886 109.361L-19.9284 160.188Z" fill="#D9D9D9"/>
<path d="M202.2 -34.804H207.009V-2.75999H202.2V-34.804ZM138.792 -2.02099L111.016 53.413L106.717 51.259L134.252 -3.69399L102.739 -15.309L104.402 -19.821L176.546 6.76901L174.883 11.281L138.792 -2.02099ZM215.148 75.932H210.339V35.607H167.644V30.798H249.615V-34.804H254.424V35.607H215.149V75.932H215.148ZM28.5031 7.23901L31.6121 86.553L26.8071 86.741L24.5621 29.473C18.1441 26.871 -11.1639 16.966 -32.5849 42.722L-36.2819 39.647C-14.6499 13.635 14.3251 20.727 24.3581 24.269L23.5891 4.64801L14.5641 -34.261L19.2481 -35.348L27.9691 2.24901L95.5931 14.783L94.7171 19.511L28.5031 7.23901ZM18.1771 286.536L87.9821 323.6L112.3 287.321L116.294 289.998L65.2411 366.161L61.2471 363.484L85.2901 327.615L15.9211 290.783L18.1771 286.536ZM-4.58392 178.056L0.085083 179.204L-14.6419 239.088L23.4391 259.944L21.1291 264.161L-15.8309 243.92L-32.0989 310.073L-36.7689 308.925L-19.9069 240.36L-40.9999 167.365L-36.3799 166.03L-17.6039 231.001L-4.58392 178.056ZM227.926 279.046L226.819 274.366L273.755 263.257L285.291 220.39L238.925 206.322L240.321 201.72L286.541 215.744L293.921 188.321L298.564 189.57L279.073 261.999L328.872 250.212L386.104 213.07V188.945H390.913V215.681L332.959 253.291L362.975 312.011L358.693 314.199L345.268 287.938L277.032 333.158L274.375 329.15L343.065 283.629L328.548 255.23L227.926 279.046ZM62.0541 85.848L77.2351 120.951L194.731 107.324L195.285 112.101L74.2401 126.139L66.9841 109.363L-24.2919 162.809L-26.7199 158.658L65.0611 104.917L57.6401 87.758L62.0541 85.848ZM348.376 335.202L352.117 332.18L384.16 371.864L402.918 342.947V299.94H407.727V344.37L386.777 376.667V438.805H381.968V376.805L368.862 360.573L325.897 388.267L323.292 384.226L365.824 356.81L348.376 335.202ZM150.026 339.611L213.859 352.39L228.411 369.993C232.159 374.526 236.752 378.088 241.82 380.602L239.562 318.846L244.367 318.67L246.706 382.639C254.519 385.331 263.119 385.688 271.401 383.314L305.155 373.643L306.479 378.266L286.462 384.001L294.232 438.465L289.471 439.144L281.795 385.339L272.725 387.938C268.546 389.136 264.296 389.715 260.083 389.715C246.614 389.715 233.562 383.772 224.704 373.057L212.808 358.666L185.001 402.602L180.938 400.031L208.647 356.25L149.081 344.326L150.026 339.611ZM24.1531 213.749V208.94H98.3991L164.384 145.906L219.09 209.78L215.438 212.908L164.034 152.89L135.345 180.296L196.44 225.58L193.577 229.442L164.975 208.243L127.347 244.389L98.3281 213.749H24.1531ZM127.508 237.566L161.056 205.339L131.817 183.668L102.754 211.431L127.508 237.566ZM368.88 126.433L390.951 121.549L400.641 62.407L405.386 63.184L396.007 120.43L421.29 114.835L422.329 119.53L369.919 131.129L368.88 126.433ZM-12.2249 409.13H23.5781V376.844H28.3871V409.13H72.2561V376.844H77.0651V410.189L120.356 436.754L117.841 440.854L73.9821 413.939H28.3871V438.804H23.5781V413.939H-14.6729L-40.6349 378.259L-36.7469 375.43L-12.2249 409.13ZM343.679 63.383L338.882 63.722L333.767 -8.65999L338.564 -8.99899L341.064 26.375L378.468 2.52101L381.054 6.57501L341.45 31.834L343.679 63.383ZM319.474 110.236L323.629 74.079L328.406 74.628L324.251 110.785L319.474 110.236ZM313.328 148.99L263.405 182.525L260.724 178.533L311.361 144.519L301.519 122.15L305.92 120.213L332.031 179.561L327.63 181.498L313.328 148.99ZM247.958 69.988L252.6 68.734L267.932 125.498L263.29 126.752L247.958 69.988Z" fill="white"/>
<path d="M118.006 441.542L121.044 436.59L77.5658 409.909V376.344H71.7568V408.63H28.8878V376.344H23.0788V408.63H-11.9702L-36.6362 374.731L-41.3332 378.148L-14.9282 414.439H23.0778V439.304H28.8868V414.44H73.8408L118.006 441.542ZM119.669 436.92L117.677 440.167L74.1228 413.44H27.8868V438.305H24.0778V413.44H-14.4192L-39.9372 378.37L-36.8572 376.129L-12.4792 409.632H24.0788V377.346H27.8878V409.632H72.7568V377.346H76.5658V410.471L76.8038 410.617L119.669 436.92ZM289.047 439.709L294.797 438.89L287.019 384.363L307.098 378.61L305.499 373.025L271.265 382.835C263.355 385.103 255.039 384.909 247.195 382.278L244.85 318.154L239.045 318.366L241.29 379.772C236.453 377.249 232.253 373.856 228.797 369.675L214.132 351.935L213.958 351.9L149.634 339.023L148.494 344.719L148.984 344.817L207.836 356.598L180.249 400.187L185.158 403.291L212.863 359.516L224.32 373.375C233.167 384.077 246.202 390.215 260.084 390.215C264.403 390.215 268.702 389.611 272.863 388.418L281.381 385.978L289.047 439.709ZM293.666 438.04L289.896 438.578L282.21 384.7L272.588 387.457C268.517 388.623 264.31 389.215 260.084 389.215C246.501 389.215 233.747 383.209 225.09 372.738L212.755 357.816L184.847 401.912L181.629 399.876L209.46 355.902L149.671 343.933L150.419 340.2L213.588 352.845L228.027 370.312C231.751 374.817 236.317 378.43 241.599 381.051L242.352 381.424L240.082 319.328L243.888 319.188L246.221 383.001L246.545 383.112C254.68 385.913 263.323 386.15 271.541 383.795L304.814 374.261L305.863 377.924L285.908 383.642L293.666 438.04ZM381.468 439.305H387.277V376.815L408.227 344.517V299.44H402.418V342.799L384.115 371.013L352.192 331.477L347.673 335.126L365.085 356.691L322.6 384.077L325.747 388.959L368.754 361.237L381.467 376.981L381.468 439.305ZM386.276 438.305H382.467V376.628L368.968 359.909L368.59 360.153L326.046 387.576L323.983 384.376L366.563 356.93L349.08 335.277L352.043 332.883L384.204 372.714L403.418 343.095V300.44H407.227V344.221L386.277 376.518L386.276 438.305ZM65.3778 366.854L65.6568 366.439L116.989 289.861L112.164 286.628L87.8188 322.946L17.9708 285.86L15.2468 290.99L84.5678 327.797L60.5538 363.621L65.3778 366.854ZM115.6 290.135L65.1028 365.468L61.9398 363.348L86.0138 327.434L16.5978 290.577L18.3838 287.213L88.1458 324.254L112.437 288.016L115.6 290.135ZM276.892 333.851L345.078 288.663L358.475 314.872L363.647 312.228L333.609 253.464L391.412 215.951V188.443H385.603V212.797L328.671 249.743L279.772 261.317L299.176 189.215L293.567 187.706L286.192 215.114L239.987 201.094L238.301 206.653L284.681 220.726L273.348 262.837L226.215 273.993L227.552 279.645L328.28 255.804L342.415 283.456L273.68 329.006L276.892 333.851ZM345.459 287.212L344.992 287.521L277.173 332.464L275.068 329.29L343.714 283.799L328.815 254.653L328.433 254.744L228.297 278.445L227.42 274.738L274.16 263.675L285.9 220.052L239.549 205.989L240.655 202.344L286.89 216.372L294.274 188.934L297.952 189.924L278.372 262.679L329.144 250.632L386.604 213.342V189.446H390.413V215.411L332.309 253.119L362.302 311.795L358.911 313.528L345.459 287.212ZM-31.7312 310.677L-15.4992 244.671L21.3288 264.84L24.1188 259.745L-14.0642 238.834L0.689819 178.838L-4.9502 177.451L-17.6432 229.066L-36.0392 165.411L-41.6192 167.024L-20.4232 240.371L-37.3722 309.291L-31.7312 310.677ZM-16.1602 243.169L-32.4642 309.468L-36.1622 308.558L-19.3882 240.349L-19.4252 240.221L-40.3812 167.706L-36.7222 166.649L-17.5652 232.937L-4.21719 178.661L-0.519196 179.571L-15.2182 239.342L22.7618 260.142L20.9328 263.483L-16.1602 243.169ZM127.331 245.099L165.017 208.897L193.681 230.142L197.139 225.477L136.12 180.249L163.998 153.618L215.384 213.615L219.796 209.837L164.421 145.182L164.04 145.547L98.1998 208.442H23.6538V214.251H98.1138L127.331 245.099ZM164.934 207.59L127.365 243.681L98.5448 213.249H24.6538V209.44H98.5998L98.7448 209.301L164.349 146.633L218.386 209.726L215.494 212.204L164.071 152.165L134.572 180.345L195.741 225.683L193.473 228.743L164.934 207.59ZM127.492 238.275L161.83 205.289L131.777 183.015L102.049 211.412L127.492 238.275ZM160.284 205.389L127.525 236.858L103.461 211.448L131.858 184.32L160.284 205.389ZM263.269 183.219L313.111 149.738L327.374 182.157L332.691 179.817L306.177 119.553L300.86 121.893L310.735 144.337L260.03 178.397L263.269 183.219ZM313.545 148.242L263.541 181.831L261.417 178.669L311.986 144.7L302.177 122.406L305.663 120.872L331.371 179.305L327.885 180.839L313.545 148.242ZM-24.4702 163.493L-24.0382 163.24L66.7508 110.079L73.9298 126.678L74.2988 126.635L195.84 112.54L195.171 106.77L77.5468 120.411L62.3138 85.19L56.9838 87.497L64.4278 104.708L-27.4032 158.478L-24.4702 163.493ZM67.2198 108.645L-24.1122 162.124L-26.0352 158.836L65.6968 105.124L58.2978 88.018L61.7938 86.506L76.9238 121.491L194.293 107.879L194.732 111.663L74.5528 125.6L67.2198 108.645ZM369.539 131.725L422.925 119.91L421.671 114.239L396.62 119.782L405.961 62.772L400.229 61.833L390.513 121.134L368.285 126.053L369.539 131.725ZM421.733 119.149L370.299 130.532L369.476 126.814L391.389 121.964L391.444 121.63L401.053 62.982L404.811 63.598L395.393 121.079L420.909 115.432L421.733 119.149ZM262.937 127.365L268.545 125.851L252.952 68.121L247.345 69.636L262.937 127.365ZM267.318 125.146L263.642 126.139L248.571 70.341L252.247 69.348L267.318 125.146ZM324.691 111.339L328.961 74.189L323.191 73.525L318.921 110.675L324.691 111.339ZM327.853 75.068L323.812 110.232L320.028 109.797L324.069 74.633L327.853 75.068ZM26.3278 87.26L32.1318 87.033L29.0278 7.84401L95.1178 20.093L96.1758 14.382L28.3818 1.81701L19.6218 -35.947L13.9638 -34.634L23.1028 4.76201L23.8308 23.558C12.1688 19.593 -15.5522 13.94 -36.6652 39.328L-36.9852 39.713L-32.5202 43.427L-32.2002 43.043C-11.2152 17.81 17.7058 27.299 24.0758 29.817L26.3278 87.26ZM31.0938 86.073L27.2878 86.222L25.0498 29.13L24.7508 29.009C18.9608 26.663 -10.8952 16.316 -32.6472 42.019L-35.5752 39.583C-14.4722 14.607 13.2248 20.868 24.1928 24.74L24.8878 24.985L24.0898 4.62801L15.1648 -33.887L18.8748 -34.748L27.5568 2.68001L95.0118 15.182L94.3178 18.927L27.9808 6.63301L31.0938 86.073ZM209.84 76.432H215.649V36.107H254.924V-35.304H249.115V30.298H167.144V36.107H209.84V76.432ZM214.648 75.432H210.839V35.107H168.144V31.298H250.115V-34.304H253.924V35.107H214.649V75.432H214.648ZM338.419 64.257L344.214 63.847L341.97 32.095L381.744 6.72801L378.62 1.83101L341.503 25.503L339.027 -9.53199L333.233 -9.12199L333.269 -8.62299L338.419 64.257ZM343.145 62.92L339.346 63.189L334.301 -8.19499L338.1 -8.46299L340.625 27.25L378.315 3.21101L380.363 6.42201L340.93 31.572L343.145 62.92ZM111.24 54.084L139.039 -1.39699L175.18 11.923L177.188 6.47301L104.105 -20.463L102.096 -15.013L133.554 -3.41899L106.046 51.481L111.24 54.084ZM138.546 -2.64499L110.794 52.742L107.389 51.036L134.949 -3.96999L103.381 -15.605L104.698 -19.178L175.904 7.06601L174.587 10.639L138.546 -2.64499ZM201.7 -2.25999H207.509V-35.304H201.7V-2.25999ZM206.508 -3.25999H202.699V-34.304H206.508V-3.25999Z" fill="white"/>
<path d="M-53.6808 161.789L-49.9398 150.365L18.9042 172.912L19.2892 173.037L212.48 131.692L182.963 94.562H161.587C143.495 94.562 126.131 87.103 113.629 74.063L27.6842 94.421L-53.9058 36.137L-49.7138 30.268L29.2102 86.647L108.374 67.895C99.8132 56.451 95.1552 42.55 95.1552 28.13V-34.804H103.57V28.13C103.57 42.561 108.908 56.398 118.6 67.09C128.807 78.341 143.056 85.126 158.125 86.033V47.016C158.125 19.5 180.505 -2.88601 208.015 -2.88601H312.205L364.984 -38.298L369.672 -31.309L355.572 -21.848L387.136 0.979996L384.696 57.036L421.185 51.558L422.434 59.88L361.973 68.956C367.821 85.357 370.509 102.516 369.946 120.042C369.042 148.357 360.056 170.382 355.078 180.529H421.81V188.944H260.378L186.774 242.408C197.298 246.753 206.726 253.435 214.32 261.999L254.34 307.093L254.864 307.683L257.55 310.71L295.317 353.254L418.669 277.662L424.951 287.911L303.421 362.388L369.111 436.411L363.716 441.199L254.852 319.116H149.553V386.506L255.147 433.31L250.276 444.301L98.0902 376.845H-51.8098V364.823H-20.6618V316.712H-51.8098V309.499H-1.43182L22.2852 262.054L13.9892 183.948L-53.6808 161.789ZM208.016 4.327C184.484 4.327 165.339 23.477 165.339 47.016V86.146H185.91L274.163 52.551C268.23 39.61 272.396 23.826 284.569 15.655L301.454 4.326L208.016 4.327ZM377.429 58.127L379.761 4.548L349.187 -17.565L289.26 22.643C279.627 29.108 276.999 42.236 283.404 51.907L288.199 59.154C292.726 65.988 300.885 69.615 308.988 68.4L377.429 58.127ZM354.708 70.047L310.236 76.723C308.781 76.942 307.328 77.048 305.882 77.048C296.068 77.047 286.695 72.125 281.181 63.799L277.903 58.845L191.476 91.745L222.874 131.241H222.886L237.539 149.675L287.356 107.881L362.787 113.628C362.58 98.688 359.874 84.068 354.708 70.047ZM262.064 180.529H346.957C350.518 173.821 360.357 153.09 362.417 125.64L291.329 120.24L245.022 159.089L262.064 180.529ZM244.696 307.094L208.924 266.786C200.66 257.466 189.997 250.601 178.089 246.934C167.793 243.761 156.743 243.082 146.136 244.97L90.9622 254.804L142.671 307.094H244.696ZM3.02719 316.711H-13.4478V364.822H100.636L137.532 381.176V312.155L82.3372 256.34L28.3992 265.954L3.02719 316.711ZM29.1612 258.491L144.871 237.869C155.998 235.884 167.557 236.49 178.435 239.549L254.381 184.386L217.504 137.994L20.8332 180.084L29.1612 258.491Z" fill="white"/>
<path d="M250.786 445.619L256.467 432.8L150.554 385.855V320.116H254.404L363.634 442.608L370.523 436.495L304.961 362.616L426.326 288.241L418.999 276.287L295.508 351.965L215.067 261.335C207.839 253.184 198.782 246.588 188.788 242.181L260.702 189.945H422.81V179.53H356.671C361.932 168.45 370.082 147.132 370.946 120.075C371.498 102.869 368.932 85.95 363.318 69.766L423.572 60.721L422.026 50.421L385.748 55.867L388.159 0.484997L357.32 -21.818L371.058 -31.036L365.257 -39.686L311.9 -3.88601H208.016C179.955 -3.88601 157.126 18.948 157.126 47.016V84.961C142.751 83.818 129.03 77.098 119.342 66.419C109.817 55.911 104.571 42.312 104.571 28.13V-35.804H94.1562V28.13C94.1562 42.296 98.4802 55.795 106.678 67.269L29.4222 85.57L-49.9458 28.874L-55.3008 36.37L27.4732 95.499L113.306 75.167C125.955 88.135 143.519 95.561 161.588 95.561H182.481L210.693 131.051L19.3412 172.002L19.2122 171.96L-50.5798 149.103L-54.9438 162.428L13.0612 184.696L21.2582 261.867L-2.05182 308.498H-52.8118V317.711H-21.6638V363.822H-52.8118V377.844H97.8792L250.786 445.619ZM253.828 433.817L249.767 442.98L98.3022 375.844H-50.8098V365.822H-19.6618V315.711H-50.8098V310.498H-0.813812L23.3102 262.238L14.9152 183.197L-52.4188 161.149L-49.2998 151.626L19.2372 174.07L214.267 132.331L183.446 93.56H161.588C143.871 93.56 126.654 86.201 114.351 73.37L113.955 72.957L27.8952 93.343L-52.5118 35.904L-49.4818 31.663L28.9982 87.725L110.087 68.517L109.174 67.296C100.657 55.911 96.1552 42.368 96.1552 28.13V-33.804H102.57V28.13C102.57 42.81 108 56.885 117.859 67.762C128.134 79.089 142.788 86.112 158.065 87.032L159.125 87.096V47.016C159.125 20.051 181.057 -1.88601 208.015 -1.88601H312.509L364.711 -36.911L368.285 -31.583L353.823 -21.879L386.113 1.47499L383.644 58.205L420.345 52.695L421.298 59.04L360.624 68.147L361.032 69.292C366.842 85.585 369.505 102.649 368.948 120.01C368.057 147.916 359.314 169.629 354.181 180.088L353.474 181.528H420.81V187.943H260.054L259.791 188.134L184.74 242.649L186.393 243.331C196.755 247.61 206.153 254.294 213.573 262.661L295.126 354.544L418.339 279.037L423.576 287.581L301.881 362.159L367.699 436.327L363.799 439.788L255.3 318.115H148.553V387.155L253.828 433.817ZM138.532 382.714V311.744L82.6802 255.264L27.7302 265.058L2.40918 315.71H-14.4478V365.821H100.424L138.532 382.714ZM136.532 312.566V379.639L100.847 363.822H-12.4488V317.711H3.6442L29.0682 266.852L81.9952 257.417L136.532 312.566ZM142.254 308.094H246.921L209.672 266.122C201.286 256.666 190.467 249.7 178.383 245.977C167.938 242.757 156.727 242.067 145.96 243.985L88.9112 254.153L142.254 308.094ZM242.472 306.094H143.089L93.0122 255.454L146.312 245.954C156.767 244.094 167.652 244.763 177.795 247.889C189.528 251.502 200.034 258.267 208.176 267.449L242.472 306.094ZM28.2802 259.664L145.046 238.853C155.946 236.91 167.397 237.482 178.163 240.512L178.63 240.643L179.022 240.359L255.813 184.581L217.9 136.886L217.293 137.015L19.7432 179.293L28.2802 259.664ZM157.906 235.725C153.466 235.725 149.038 236.11 144.695 236.885L30.0422 257.319L21.9222 180.873L217.106 139.102L252.948 184.192L178.238 238.458C171.615 236.64 164.747 235.725 157.906 235.725ZM261.582 181.529H347.559L347.841 180.998C351.842 173.46 361.368 152.985 363.414 125.715L363.489 124.719L290.999 119.213L243.634 158.95L261.582 181.529ZM346.354 179.529H262.547L246.411 159.23L291.66 121.269L361.341 126.562C359.22 152.342 350.391 171.804 346.354 179.529ZM237.395 151.102L287.686 108.91L363.801 114.709L363.786 113.615C363.578 98.568 360.838 83.793 355.645 69.701L355.363 68.937L310.087 75.733C308.704 75.941 307.289 76.047 305.881 76.047C296.244 76.047 287.321 71.261 282.013 63.246L278.294 57.625L189.84 91.296L237.395 151.102ZM287.025 106.854L237.683 148.25L193.11 92.194L277.511 60.065L280.346 64.351C286.026 72.927 295.572 78.047 305.882 78.048C307.389 78.048 308.904 77.935 310.385 77.712L354.048 71.158C358.858 84.463 361.453 98.379 361.767 112.549L287.025 106.854ZM164.339 87.146H186.095L275.518 53.106L275.073 52.135C269.297 39.536 273.619 24.21 285.127 16.486L304.74 3.327H208.016C183.933 3.327 164.339 22.926 164.339 47.016V87.146ZM185.726 85.146H166.338V47.016C166.338 24.028 185.034 5.327 208.015 5.327H298.168L284.011 14.826C271.994 22.892 267.3 38.704 272.825 51.991L185.726 85.146ZM305.878 69.633C306.96 69.633 308.048 69.553 309.136 69.39L378.393 58.994L380.784 4.054L349.209 -18.783L288.703 21.814C278.614 28.585 275.863 42.332 282.57 52.461L287.365 59.707C291.496 65.944 298.521 69.633 305.878 69.633ZM376.465 57.26L308.838 67.412C301.117 68.567 293.343 65.112 289.031 58.602L284.237 51.356C278.135 42.141 280.638 29.633 289.817 23.474L349.166 -16.346L378.738 5.042L376.465 57.26Z" fill="white"/>
<path d="M315.767 35.3529L329.993 33.9347L332.106 55.1254L317.88 56.5435L315.767 35.3529Z" fill="white"/>
<path d="M311.436 13.5852L324.401 6.0997L327.52 11.5018L314.555 18.9873L311.436 13.5852Z" fill="white"/>
<path d="M297.6 29.9842L307.687 28.9787L309.577 47.9383L299.49 48.9438L297.6 29.9842Z" fill="white"/>
<path d="M311.111 82.5584L317.32 83.4287L315.158 98.8576L308.949 97.9873L311.111 82.5584Z" fill="white"/>
<path d="M264.402 91.664H282.642V77.794H260.966L264.402 91.664Z" fill="white"/>
<path d="M267.933 104.261H282.642V96.436H266.47L267.933 104.261Z" fill="white"/>
<path d="M290.105 82.11H302.548V97.743H290.105V82.11Z" fill="white"/>
<path d="M223.236 42.213H235.958V58.846H223.236V42.213Z" fill="white"/>
<path d="M179.014 41.203H201.832V47.059H179.014V41.203Z" fill="white"/>
<path d="M172.956 53.413H187.091V65.031H172.956V53.413Z" fill="white"/>
<path d="M189.514 69.675H199.409V75.931H189.514V69.675Z" fill="white"/>
<path d="M229.597 10.787H239.07V25.781H229.597V10.787Z" fill="white"/>
<path d="M191.477 13.541H220.559V23.027H191.477V13.541Z" fill="white"/>
<path d="M144.723 7.01514L150.961 9.88058L141.445 30.5962L135.207 27.7308L144.723 7.01514Z" fill="white"/>
<path d="M133.655 45.237H150.791V65.031H133.655V45.237Z" fill="white"/>
<path d="M120.651 45.237H127.23V53.413H120.651V45.237Z" fill="white"/>
<path d="M64.6344 22.089H84.6484V33.553H64.6344V22.089Z" fill="white"/>
<path d="M47.9237 22.089H58.8047V47.932H47.9237V22.089Z" fill="white"/>
<path d="M62.302 55.134H85.54V66.004H62.302V55.134Z" fill="white"/>
<path d="M38.7914 61.729H44.2324V74.359H38.7914V61.729Z" fill="white"/>
<path d="M0.123199 33.554H10.0332V46.378H0.123199V33.554Z" fill="white"/>
<path d="M10.0333 54.345H17.0283V63.672H10.0333V54.345Z" fill="white"/>
<path d="M31.9905 99.813H48.8955V110.111H31.9905V99.813Z" fill="white"/>
<path d="M0.124298 119.827H17.0283V97.093L0.124298 85.848V119.827Z" fill="white"/>
<path d="M88.3379 91.264H106.17V101.083H88.3379V91.264Z" fill="white"/>
<path d="M216.287 175.03H235.238V183.667H216.287V175.03Z" fill="white"/>
<path d="M200.946 150.385H208.887V163.118H200.946V150.385Z" fill="white"/>
<path d="M186.689 153.733H192.645V160.772H186.689V153.733Z" fill="white"/>
<path d="M191.335 202.92L200.356 209.841L196.292 215.139L187.271 208.218L191.335 202.92Z" fill="white"/>
<path d="M169.9 180.783L182.214 190.23L175.681 198.746L163.366 189.298L169.9 180.783Z" fill="white"/>
<path d="M306.536 207.681H323.292V226.072H306.536V207.681Z" fill="white"/>
<path d="M292.883 235.268H301.521V249.758H292.883V235.268Z" fill="white"/>
<path d="M337.745 198.242H372.577V207.681H337.745V198.242Z" fill="white"/>
<path d="M309.898 275.509H324.093V284.869H309.898V275.509Z" fill="white"/>
<path d="M293.362 275.509H303.97V294.541H293.362V275.509Z" fill="white"/>
<path d="M262.32 276.914L281.819 272.858V287.989H262.32V276.914Z" fill="white"/>
<path d="M352.827 270.032H368.037V242.513L352.827 251.816V270.032Z" fill="white"/>
<path d="M155.242 260.739H180.996V280.089H155.242V260.739Z" fill="white"/>
<path d="M126.64 278.624L144.525 295.645V260.739H126.64V278.624Z" fill="white"/>
<path d="M57.5553 181.932L88.582 176.339L91.1689 190.689L60.1422 196.282L57.5553 181.932Z" fill="white"/>
<path d="M-14.5366 267.687H1.81836V277.934H-14.5366V267.687Z" fill="white"/>
<path d="M74.0872 281.769H93.9092V295.644H74.0872V281.769Z" fill="white"/>
<path d="M41.1111 285.533H56.0771V269.315L41.1111 271.478V285.533Z" fill="white"/>
</g>
<path d="M86.4526 43.296C92.6446 37.104 102.683 37.104 108.875 43.296C115.067 49.488 115.067 59.526 108.875 65.718L97.6636 76.929L86.4526 65.718C80.2606 59.527 80.2606 49.488 86.4526 43.296Z" fill="#93D301"/>
<path d="M97.6635 66.072C91.2763 66.072 86.0985 60.8942 86.0985 54.507C86.0985 48.1198 91.2763 42.942 97.6635 42.942C104.051 42.942 109.229 48.1198 109.229 54.507C109.229 60.8942 104.051 66.072 97.6635 66.072Z" fill="white"/>
<path d="M173.789 13.3C179.981 7.10801 190.019 7.10801 196.211 13.3C202.403 19.492 202.403 29.53 196.211 35.722L185 46.934L173.789 35.723C167.597 29.531 167.597 19.492 173.789 13.3Z" fill="#93D301"/>
<path d="M185 36.076C178.613 36.076 173.435 30.8982 173.435 24.511C173.435 18.1238 178.613 12.946 185 12.946C191.388 12.946 196.565 18.1238 196.565 24.511C196.565 30.8982 191.388 36.076 185 36.076Z" fill="white"/>
<path d="M344.71 181.425C350.902 175.233 360.94 175.233 367.132 181.425C373.324 187.617 373.324 197.655 367.132 203.847L355.921 215.058L344.71 203.847C338.518 197.656 338.518 187.617 344.71 181.425Z" fill="#93D301"/>
<path d="M355.921 204.201C349.534 204.201 344.356 199.023 344.356 192.636C344.356 186.249 349.534 181.071 355.921 181.071C362.308 181.071 367.486 186.249 367.486 192.636C367.486 199.023 362.308 204.201 355.921 204.201Z" fill="white"/>
<path d="M298.785 219.702C304.977 213.51 315.015 213.51 321.207 219.702C327.399 225.894 327.399 235.932 321.207 242.124L309.996 253.335L298.785 242.124C292.593 235.933 292.593 225.894 298.785 219.702Z" fill="#93D301"/>
<path d="M309.996 242.479C303.608 242.479 298.431 237.301 298.431 230.914C298.431 224.527 303.608 219.349 309.996 219.349C316.383 219.349 321.561 224.527 321.561 230.914C321.561 237.301 316.383 242.479 309.996 242.479Z" fill="white"/>
<path d="M46.8158 282.848C53.0078 276.656 63.0458 276.656 69.2378 282.848C75.4298 289.04 75.4298 299.078 69.2378 305.27L58.0268 316.481L46.8158 305.27C40.6238 299.079 40.6238 289.04 46.8158 282.848Z" fill="#93D301"/>
<path d="M58.0268 305.624C51.6396 305.624 46.4618 300.446 46.4618 294.059C46.4618 287.672 51.6396 282.494 58.0268 282.494C64.414 282.494 69.5918 287.672 69.5918 294.059C69.5918 300.446 64.414 305.624 58.0268 305.624Z" fill="white"/>
<path d="M-21.0957 94.333C-15.4987 88.736 -6.42368 88.736 -0.82568 94.333C4.77132 99.93 4.77132 109.005 -0.82568 114.603L-10.9607 124.738L-21.0957 114.603C-26.6927 109.005 -26.6927 99.93 -21.0957 94.333Z" fill="#93D301"/>
<path d="M-18.3531 111.86C-14.2701 115.943 -7.65111 115.943 -3.56811 111.86C0.514891 107.777 0.514891 101.158 -3.56811 97.075C-7.65111 92.992 -14.2701 92.992 -18.3531 97.075C-22.4361 101.158 -22.4361 107.778 -18.3531 111.86Z" fill="white"/>
<path d="M344.71 51.577C350.902 45.385 360.94 45.385 367.132 51.577C373.324 57.769 373.324 67.807 367.132 73.999L355.921 85.21L344.71 74C338.518 67.808 338.518 57.769 344.71 51.577Z" fill="#93D301"/>
<path d="M355.921 74.354C349.534 74.354 344.356 69.1762 344.356 62.789C344.356 56.4018 349.534 51.224 355.921 51.224C362.308 51.224 367.486 56.4018 367.486 62.789C367.486 69.1762 362.308 74.354 355.921 74.354Z" fill="white"/>
<path d="M70.5981 162.287C76.7901 156.095 86.8281 156.095 93.0201 162.287C99.2121 168.479 99.2121 178.517 93.0201 184.709L81.8091 195.92L70.5981 184.709C64.4071 178.517 64.4071 168.479 70.5981 162.287Z" fill="#93D301"/>
<path d="M81.809 185.063C75.4218 185.063 70.244 179.885 70.244 173.498C70.244 167.111 75.4218 161.933 81.809 161.933C88.1962 161.933 93.374 167.111 93.374 173.498C93.374 179.885 88.1962 185.063 81.809 185.063Z" fill="white"/>
<path d="M201.209 124.01C207.401 117.818 217.439 117.818 223.631 124.01C229.823 130.202 229.823 140.24 223.631 146.432L212.42 157.643L201.209 146.432C195.017 140.24 195.017 130.202 201.209 124.01Z" fill="#93D301"/>
<path d="M212.42 146.786C206.033 146.786 200.855 141.608 200.855 135.221C200.855 128.834 206.033 123.656 212.42 123.656C218.808 123.656 223.985 128.834 223.985 135.221C223.985 141.608 218.808 146.786 212.42 146.786Z" fill="white"/>
<path d="M165.862 263.71C172.054 257.518 182.092 257.518 188.284 263.71C194.476 269.902 194.476 279.94 188.284 286.132L177.073 297.343L165.862 286.132C159.67 279.94 159.67 269.901 165.862 263.71Z" fill="#93D301"/>
<path d="M177.073 286.486C170.686 286.486 165.508 281.308 165.508 274.921C165.508 268.534 170.686 263.356 177.073 263.356C183.46 263.356 188.638 268.534 188.638 274.921C188.638 281.308 183.46 286.486 177.073 286.486Z" fill="white"/>
<path d="M16.6729 76.606C22.2699 71.009 31.3449 71.009 36.9429 76.606C42.5399 82.203 42.5399 91.278 36.9429 96.876L26.8079 107.011L16.6729 96.876C11.0759 91.279 11.0759 82.204 16.6729 76.606Z" fill="#93D301"/>
<path d="M19.4145 94.134C23.4975 98.217 30.1165 98.217 34.1995 94.134C38.2825 90.051 38.2825 83.432 34.1995 79.349C30.1165 75.266 23.4975 75.266 19.4145 79.349C15.3325 83.431 15.3325 90.051 19.4145 94.134Z" fill="white"/>
</g>
</g>
<defs>
<clipPath id="clip0_53_2636">
<rect width="500" height="500" fill="white" transform="matrix(-1 0 0 1 435 -48)"/>
</clipPath>
</defs>
</svg>
